<?xml version="1.0" encoding="UTF-8"?><svg id="uuid-0254c243-9f55-4ffe-8fee-4a5cfa65f15b" xmlns="http://www.w3.org/2000/svg" viewBox="0 0 768 768"><defs><style>.uuid-d83fdcc8-51c7-48b0-9fa6-a0617d9b6bc4{fill:#d2e6e9;}.uuid-d83fdcc8-51c7-48b0-9fa6-a0617d9b6bc4,.uuid-4f42647f-8885-41d2-87fc-8a1e1b221a19,.uuid-7d0fc552-ed7d-4a0d-9213-150db2bed77f{stroke-width:0px;}.uuid-4f42647f-8885-41d2-87fc-8a1e1b221a19{fill:#0c2d3f;}.uuid-7d0fc552-ed7d-4a0d-9213-150db2bed77f{fill:#7fb1c3;}</style></defs><path class="uuid-4f42647f-8885-41d2-87fc-8a1e1b221a19" d="M8.39,333.16c1.79-12.78,2.29-25.91,5.69-38.24,4.41-15.98,11.26-31.28,16.82-46.96,2.38-6.71,4.19-13.64,6.37-20.84.92-.54,2.18-1.29,2.29-1.35,3.26-6.82,6.03-12.61,8.8-18.41.32.14.65.28.97.43.14-1.98.28-3.96.42-5.95l.96.52c5.14-8.45,10.28-16.9,17.06-28.03,2.46-3.17,6.91-8.89,11.36-14.6-.61-.5-1.21-1-1.82-1.5,18.94-20.49,37.89-40.98,56.83-61.47.31.32.61.64.92.95,4.86-4.31,9.72-8.61,13.13-11.63,15.03-10.18,28.51-19.32,46.05-31.21,14.41-7.05,33.28-16.29,49.71-24.33,10.63-3.61,18.69-6.66,26.94-9.05,8.31-2.41,17.67-2.56,25.01-6.56,11.59-6.31,24.39-2.61,36.03-6.88,5.1-1.87,10.91-2.45,16.41-2.52,22.47-.28,44.96-.39,67.43.02,6.69.12,13.33,2.34,20.03,3.31,5.19.75,10.46.89,15.66,1.57,4.14.54,8.3,1.26,12.34,2.31,12.16,3.14,24.4,6.06,36.34,9.88,8.26,2.64,16.09,6.6,24.11,10,8.66,3.66,17.49,6.98,25.91,11.13,7.21,3.55,13.9,8.13,20.89,12.13,7.98,4.56,16.36,8.49,23.98,13.58,10.4,6.95,20.82,14.09,30.18,22.35,10.65,9.4,20.11,20.14,30.14,30.25,6.84,6.9,14.13,13.41,20.55,20.68,5.54,6.29,10.17,13.38,15.14,20.17,4.84,6.6,9.61,13.26,12.74,17.59,9.88,18.67,18.47,34.91,27.51,52,4.4,17.35,16.11,32.95,16.17,51.26,1.8,3.83,3.77,6.5,4.29,9.43,2.02,11.45,3.09,23.07,5.4,34.45,4.42,21.75,4.86,43.69,5.05,65.77.17,20.48-4.24,40.23-6.99,60.27-.24,1.79-.03,3.64-1.72,5.26-.72,5.59-1.44,11.18-2.16,16.78l-.72-.31c-3.45,11.6-6.9,23.21-10.55,35.46,0,0-.89.29-1.12.36-4.31,11.86-8.45,23.25-12.4,34.13-9.14,15.93-17.89,31.17-26.63,46.4.22.09.44.19.66.28-2.78,3.19-5.56,6.38-8.34,9.58.22.18.44.35.66.53-7.15,9.02-14.29,18.04-21.44,27.06-21.04,24.04-44.07,46.33-76.58,68.82-15.15,11.46-38.18,23.34-62.04,34.13-7.01,2.68-14.03,5.35-21.04,8.03-79.64,28.58-160.02,29.45-240.29,5.4-79.24-23.74-143.63-69.95-193.54-136.16-.31-1.62-.63-3.25-.66-3.39-4.61-5.59-8.34-10.11-12.06-14.62.19-.09.39-.18.58-.27-6.54-11.59-13.07-23.19-19.61-34.78-.29.17-.57.33-.86.5-4.16-9.99-8.37-19.97-12.46-29.99-2.48-6.08-5.19-12.11-7.08-18.39-2.85-9.49-4.85-19.23-7.63-28.74-2.88-9.87-6.6-19.5-9.23-29.43-1.12-4.22-.43-8.93-.57-13.42-.93-14.31-2.69-28.62-2.59-42.92.15-20.29,1.66-40.56,2.59-60.84ZM337.41,632.77l-.03.05c0-.48,0-.95,0-1.43.13-.23.1-.44-.08-.63-1.1-7.16-2.2-14.31-3.31-21.47-.02-.14-.23-.24-.29-.39-3.2-7.67-5.62-15.81-9.84-22.87-2.9-4.85-8.16-8.37-12.63-12.17-1.75-1.49-4.29-2.02-6.39-3.15-10.99-5.93-21.8-12.22-32.96-17.8-11.27-5.63-22.85-10.65-34.34-15.81-7.78-3.49-15.64-6.78-23.49-10.13-9.99-4.26-19.91-8.68-30.01-12.66-7.39-2.91-15.05-5.14-22.54-7.82-4.67-1.68-9.3-3.51-13.86-5.49-5.15-2.24-10.09-4.99-15.29-7.06-5.67-2.26-11.57-3.9-17.32-5.98-8.09-2.93-16.03-6.35-24.23-8.9-5.45-1.69-11.25-2.24-17.15-3.34v8.3c7.75,2.72,15.74,5.53,23.73,8.34,3.96,2.53,8.54,3.4,12.85,5,7.58,2.81,14.99,6.1,22.5,9.1,2.35.94,4.85,1.48,7.2,2.42,4.82,1.92,9.5,4.24,14.4,5.93,3.92,1.35,8.36,1.41,12.09,3.11,7.72,3.52,14.89,8.27,22.69,11.54,9.55,4,19.59,6.8,29.27,10.49,5.45,2.08,10.65,4.81,15.89,7.41,10.28,5.1,20.48,10.36,30.76,15.45,5.51,2.73,11.2,5.11,16.66,7.93,6.21,3.2,12.27,6.69,18.38,10.1,3.75,2.09,8.31,3.52,10.96,6.58,3.52,4.07,5.56,9.43,8.2,14.26,1.68,3.06,3.4,6.1,4.9,9.24,3.15,6.58,6.18,13.23,9.25,19.85v6.36c1.62-1.73,2.29-2.44,2.95-3.15.35-.4.71-.79,1.06-1.19ZM364.15,666.83c.73.94,1.47,1.88,2.2,2.83.31.35.63.69.94,1.04,6.27,12.28,12.93,24.38,19.42,36.55h7.36c-4.19-9.67-8.06-18.6-12.52-28.9-3.28-3.72-7.23-8.2-11.17-12.67-9.09-11.32-19.46-21.12-32.64-28.94v7.09c9.6,8.36,18.01,15.68,26.41,23ZM333.2,667.09c-1.39-.8-2.98-1.39-4.15-2.44-5.1-4.61-10.08-9.36-15.64-14.55-1.2,2.59-1.72,3.73-2.2,4.76,2.59,3.09,4.7,6.34,7.51,8.78,4.6,3.99,9.66,7.44,14.52,11.12.53,1.85.61,4.02,1.66,5.51,5.95,8.41,12.13,16.65,18.95,25.92.49-.03,2.55-.13,6.24-.32-3-6.4-5.55-11.83-8.1-17.27-2.39-2.8-3.43-6.42-5.69-8.98-3.98-4.51-8.7-8.38-13.11-12.51ZM540.36,249.05c.52.64.95,1.72,1.58,1.86,5.26,1.11,10.6,1.9,15.82,3.15,1.03.25,1.67,2.07,2.5,3.17l-3.12,4.91c-8.06,5.44-16.12,10.88-24.3,16.4-11.53-9.48-23.05-18.94-34.56-28.4-.58.56-1.17,1.13-1.75,1.69,1.02,2.27,1.76,4.74,3.13,6.78,2.81,4.19,5.64,8.44,9.03,12.15,7.74,8.47,15.46,17.01,23.88,24.78,6.03,5.56,12.61,1.03,18.02-1.92,10.18-5.55,19.74-12.23,29.68-18.23,4.87-2.94,10.03-5.39,15.3-8.19-4.52-4.43-9.45-9.27-14.38-14.12-4.36-4.51-8.86-8.9-12.98-13.62-1.14-1.3-2.08-4.09-1.45-5.38,2.05-4.15,4.88-7.92,8.11-12.93-8.68.92-15.81,1.03-20.04,9.16-1.93,3.71-6.19,6.12-8.91,9.51-2.22,2.77-3.73,6.13-5.55,9.22ZM262.45,617.71c-1.42,1.39-2.84,2.78-3.85,3.77,4.24,5.8,9.19,11.75,13.2,18.28,4.3,6.99,7.37,14.74,11.64,21.75,3.4,5.58,2.12,13.5,9.67,17.18,3.93,1.91,6.78,6.06,10.12,9.19-.16.19-.32.37-.48.56,3.41,3.07,6.82,6.14,10.83,9.75.41-1.87,1.29-3.43.83-4.21-2.96-5.06-5.85-10.24-9.47-14.82-4.04-5.11-9.93-9.01-13.04-14.54-4.65-8.28-7.6-17.51-11.22-26.36-.91-2.23-1.83-4.48-2.44-6.8-1.19-4.59-11.51-13.59-15.9-13.66-6.42-10.83-16.46-17.27-28.28-24.06-.19-.18-1.36-1.98-3-2.71-8.69-3.87-17.56-7.35-26.26-11.2-10.18-4.49-20.16-9.43-30.41-13.75-4.23-1.78-9.04-2.15-13.38-3.72-5.96-2.16-11.71-4.9-17.58-7.32-7.64-3.15-15.18-6.61-23.02-9.15-3.32-1.08-7.28-.18-10.94-.18-.16,1.13-.32,2.27-.48,3.4,13.65,5.19,27.29,10.37,42.59,16.19-.29-.43.62.92,1.53,2.26,32.75,12.73,65.48,25.23,93.95,46.63,5.12,1.17,10.25,2.35,15.37,3.52ZM365.44,594.79c-1.97,6.59-3.93,13.18-5.58,18.69,1.02,3.39,1.68,5.73,2.44,8.03.87,2.66,1.09,6.05,2.88,7.79,7.01,6.77,14.8,12.74,21.77,19.55,4.79,4.68,8.71,10.27,13.01,15.45,1.94,5.43,4.48,10.13,6.46,15.06,2.55,6.32,4.61,12.84,6.98,19.24.59,1.59,1.35,3.24,2.44,4.5,2.99,3.47,6.26,1.21,9.89.95,13.7-.99,27.31-1.23,40.48-6.23,8.89-3.37,18.35-5.26,27.55-7.83.46-.13.82-.56,1.27-.75,7.84-3.22,15.75-6.28,23.53-9.67,5.91-2.57,11.82-5.26,17.42-8.43,6.01-3.4,11.52-7.68,17.52-11.1,5.03-2.87,10.45-5.07,16.37-7.88-2.3-2.29-3.89-3.88-5.48-5.47-.19.67-.38,1.35-.57,2.02-17.18-2.31-34.32-4.95-51.55-6.78-9.07-.96-17.79-1.61-26.83-4.42-11.62-3.6-24.5-3.14-36.84-4.43.1-.71.2-1.42.3-2.13-9.23-2.77-18.45-5.54-27.7-8.31-7.97-6.59-24.89-9.22-14.05-25.78,4.56-3.06,8.9-5.97,13.24-8.89,2.91-.92,5.81-1.84,8.72-2.77-.01-.83-.02-1.66-.04-2.49-21.12-.19-42.24-.15-63.64-.02,0,4.52,0,8.31,0,12.09ZM399.34,219.18c.32-5.15.63-10.31,1.03-16.91-1.2,0-4.35-.46-7.3.11-3.93.77-7.81,2.71-9.89-2.61,12.94-16.08,14.2-20.16-.35-32.12h-15.27c7.47-9.14,14.39-17.61,20.94-25.63-2.84-5.23-4.68-8.62-6.43-11.85-2.2,1.86-3.5,3-4.85,4.09-3.78,3.05-8.38,5.49-11.18,9.26-3.87,5.22-6.93,11.22-9.39,17.26-4.43,10.89-15.55,11.11-24.04,16.99-2.15,1.11-4.9,2.54-6.87,3.57-3.08,9.49-5.98,18.43-8.88,27.36.52.55,1.03,1.1,1.55,1.65,7.47-4.4,14.93-8.8,23.88-14.07.75-.03,3.33-.15,8.44-.38-11.05,17.45-27.42,25.57-37.74,34.68-10.72-.82-17.93-1.6-25.16-1.76-1.6-.04-3.98,1.7-4.76,3.25-2.78,5.49-4.66,11.45-7.59,16.86-2.91,5.37-6.67,10.28-10.05,15.39-3.07,3.85-6.14,7.7-8.5,10.65-3.69,7.11-6.9,13.29-10.55,20.32,8.16,2.97,11.01-4.3,15.94-7.46,1.81-1.08,3.43-2.34,4.7-3.88,4.25-5.11,8.55-10.19,12.43-15.57,1.08-1.5.79-3.99,1.13-6.03,6.41-5.23,12.81-10.45,21.1-17.22-.91,4.91-1.19,8.09-2.14,11.05-.92,2.83-2.54,5.43-3.85,8.13.59.37,1.19.74,1.78,1.1,2.3-1.35,4.7-2.56,6.9-4.06,10.58-7.25,21.18-14.46,31.6-21.93,4.18-3,7.69-6.93,11.9-9.87,4.94-3.45,8.44-10.24,16.38-7.79-3.21,7.38-6.38,14.68-9.86,22.68,5.13-1.33,8.94-2.32,12.84-3.34.64,7.55-39.57,44.95-48.63,44.81,1.88-5.51,3.64-10.64,5.88-17.22-4.33.81-6.77,1.27-9.22,1.73.24.4.49.81.73,1.21-17.75,13.25-35.5,26.5-50.81,37.93-13.55,3.85-21.91,15.07-34.73,10.62-6.31-3.33-12.61-6.68-18.94-9.97-4.08-2.12-8.21-4.15-12.32-6.22.13-.58.27-1.15.4-1.73,6.85-1.65,13.69-3.3,21.61-5.21-2.3-1.6-3.98-2.96-5.82-4.02-9.1-5.24-18.57-9.92-27.26-15.75-5.42-3.64-10.34-4.11-15.88-2.33-.67,2.64-1.23,4.83-1.79,7.02-2.88-.8-5.75-1.59-9.65-2.67,3.76-5.6,7.06-10.53,10.37-15.47.3.12.6.23.89.35,2.87-5.08,5.75-10.16,8.62-15.25-.88-.87-1.77-1.73-2.65-2.6-6.26,3.14-12.53,6.28-19.61,9.83.39-4.14.66-7,.94-9.92-3.94.5-7.02.9-7.88,1.01-6.34,3.34-11.56,4.96-15.16,8.31-3.81,3.55-6.07,8.76-9.01,13.25-2.15,2.68-5.21,4.82-8.5,6.47-4.87,2.45-9.95,4.46-14.87,6.83-7.28,3.5-14.15,8.5-21.8,10.39-9.11,2.24-14.01,7.14-16.41,15.56-6.24,20.7-7.47,41.82-5.8,63.5,6.98,2.8,13.72,5.5,20.52,8.23,1.92-6.88,3.62-12.97,5.39-19.32-.75-.64-1.98-1.7-4.42-3.8,3.88-4.64,7.63-9.13,12.38-14.81,2.96,7.96,5.42,14.59,7.89,21.22-.47.16-.93.31-1.4.47l4.82,8.29c-.73.17-1.45.34-2.18.51.31,2.85.63,5.7.94,8.55,2.66,12.95,3.26,13.99,9.83,13.96,2.2-3.59,4.44-7.23,6.65-10.84-5.02-4.05-3.61-7.54,7-17.68,5.75,6.23,14.01,11.52,6.65,21.59,1.88,1.49,3.14,2.5,4.46,3.55v8.61c1.74,2.39,3.25,4.47,4.61,6.34,4.14-4.46,8.29-8.94,13.32-14.36-2.54-1.23-5.89-2.85-10.16-4.91,6.04-6.75,11.22-12.55,17.56-19.63-4.49-.39-6.28-.54-8.39-.72-.76-1.52-1.54-3.07-2.15-4.3,5.4-6.11,10.4-11.78,15.91-18.02-4.03-1.83-6.34-2.88-8.17-3.71,5.16-10.43,10.17-20.57,15.75-31.85,4.74,11.33,9.01,21.56,13.29,31.79-2.91,1.34-4.76,2.19-7.02,3.23,1.85,3.23,3.45,6.03,4.92,8.59,1.79.43,3.22.77,3.75.89,2.88,3.75,5.24,6.81,7.99,10.4-3.36,2.01-6.35,3.8-10.2,6.11,5.2,6.13,10.06,11.85,15.69,18.49-4.32.59-6.22.85-8.13,1.1-2.94,7.84,11.67,8.73,6.19,17.2-2.7.27-5.4.55-8.11.82-.18.56-.36,1.11-.54,1.67,3.04,1.71,6.07,3.43,10.07,5.68.69,2.6,3.53,7.33,2.23,10.12-1.25,2.69-6.8,3.37-10.78,5.08,2.27,3.68,4.38,7.1,6.04,9.79,3.67,1.2,6.63,2.01,9.47,3.13,2.89,1.14,5.65,2.58,7.42,3.39,5.48-5.83,9.93-10.56,15.01-15.96-2.59-1.27-4.64-2.28-7.86-3.86,2.04-2.97,4.36-5.62,5.79-8.69.97-2.06.79-4.71.92-7.1.13-2.21-.87-4.97.12-6.56,3.22-5.2,7.11-9.97,11.46-15.88,2.19,4.04,4.02,7.88,6.28,11.46,2.25,3.57,5.74,6.65,1.89,11.32-.46.56.56,2.72,1.32,3.86,2.5,3.79,5.19,7.45,7.83,11.2-2.65,1.71-4.62,2.98-6.65,4.29,5.02,6.16,9.69,11.87,14.38,17.62-3.43,2.22-5.29,3.42-7.16,4.64,4.05,5.3,7.87,10.3,11.69,15.29,4.57-5.19,8.9-10.09,13.8-15.65-4.38-1.34-6.44-1.97-9.89-3.03,5.63-6.86,10.52-12.81,15.61-19.02-2.5-.4-4.55-.73-6.77-1.09v-4.64c4.38-6.84,8.21-12.82,12.37-19.31,1.81,4.46,2.56,8.36,4.72,11.18,3.95,5.13,5.75,9.57-.12,13.57,4.58,5.79,8.96,11.34,13.23,16.73-2.45,2.56-3.82,4-5.68,5.94,2.22,3.25,4.38,6.54,6.66,9.73,2.21,3.09,4.55,6.08,6.84,9.11-.57.6-1.15,1.2-1.72,1.8h-13.85c7.11,9.81,20.45,13.82,19.08,26.99-2.23,1.24-4.16,2.31-6.33,3.51,2.61,2.72,4.84,5.03,7.59,7.89-.4,2.03-.9,4.62-1.38,7.04-2.68.15-4.49.25-8.86.48,5.22,5.83,9.31,10.4,14.64,16.34,5.04-12.74,9.45-23.88,13.86-35.02-.12-.1-.25-.19-.37-.29.97-3.01,1.93-6.03,3.14-9.81.54,2.19.89,3.56,1.21,4.89,1.3.46,2.51.89,4.07,1.44v12.55c2.32,2.78,4.05,4.84,5.09,6.09-.77,3.48-1.29,5.87-1.85,8.38,2.15.77,3.51,1.26,4.93,1.77.47,2.02.95,4.04,1.44,6.14-2.17.96-4.04,1.79-6.88,3.05,2.79,3.18,5.05,5.76,7.83,8.93-1.72,1.62-3.21,3.03-5.16,4.87,1.74,2.72,3.71,5.8,5.61,8.78-1.75,2.44-3.18,4.44-5.17,7.21h85.88c.55-2.24,1-4.12,1.46-6.01.48.44.96.88,1.44,1.32,8.14-7.51,16.29-15.01,24.89-22.94-.35-.96-.82-2.25-1.26-3.45-2.52-.25-4.63-.45-9.35-.91,4.06-5.36,7.14-9.43,10.62-14.02-3.03-.86-5.47-1.55-9.48-2.68,2.94-4.66,5.56-8.83,8.23-13.07-2.09-1.4-4.3-2.87-6.84-4.56,3.3-4.29,6.14-7.96,9.36-12.15-1.16-.88-2.6-1.96-5.07-3.84,3.72-4.76,7.28-9.32,10.43-13.35-1.72-.86-3.94-1.97-6.76-3.38,4.08-6.75,7.68-12.71,11.3-18.72,7.61,5.03,10.44,16.44,6.52,21.73,1.9,2.89,3.24,6.46,5.8,8.48,5.04,3.97,4.51,7.09-1.32,11.27,2.98,2.16,5.51,4,8.04,5.84.22-.3.43-.6.65-.91,1.34,1.96,2.69,3.92,4.09,5.97,2.16-1.8,3.91-3.26,5.95-4.96-1.69-1.54-3.09-2.81-5.35-4.85,3.45-5.45,6.85-10.83,10.22-16.15-2.19-1.5-3.8-2.59-6.46-4.41,3.64-4.63,6.96-8.84,10.25-13.02-1.23-1.48-2.25-2.69-3.45-4.14,2.92-5.89,3.34-13.21,12.1-17.26,2.08,8.13,3.87,15.14,6.2,24.22,8.02,6.29,8.85,9.85,1.68,15.85,2.99,5.15,6,10.34,9.22,15.89-2.62.59-4.62,1.03-9.1,2.04,3.38,3.99,5.64,6.66,7.91,9.33.68-.69,1.37-1.39,2.05-2.08.47,1.41.94,2.82,1.39,4.2,5.76-4.66,11.03-8.92,17.9-14.48-5.74-2.06-8.54-3.06-12.37-4.43-.35-.38-1.51-1.67-3.36-3.71,4.77-5.46,9.61-11.02,14.91-17.09-2.67-.53-4.99-1-7.12-1.42-4.68-5.27-1.97-9.78,2.02-12.78,9.12-6.87,9.4-7.23.56-13.82,2.86-4,5.73-8.01,8-11.18-3.3-2.12-5.87-3.77-8.54-5.48,6.34-8.97,11.82-16.71,17.62-24.9-2.33-.3-4.81-.62-6.57-.84-1.21-2.25-2.14-3.97-3.06-5.69,1.14-1.98,2.28-3.97,3.42-5.95,4.87-4.03,12.57-5.62,12.88-14.59-2.8-.4-5.01-.72-8.6-1.23,5.5-9.87,10.63-19.1,16.71-30.03,1.03,4.67,1.67,7.57,2.31,10.46.35-.18.71-.37,1.06-.55,3.19,6.49,6.37,12.98,9.35,19.05-4.07,1.88-6.23,2.88-7.42,3.43,4.36,7.3,8.08,13.53,11.99,20.07-4.43,1.78-6.8,2.73-9.83,3.95,7.53,9.08,14.64,17.64,22.56,27.18-4.47,2.34-7.2,3.77-10.6,5.55,2.85,3.25,5.47,6.24,8.7,9.91,7.47-4.66,14.88-9.29,22.29-13.91-.15-.7-.29-1.4-.44-2.1-5.48-.69-10.95-1.37-16.43-2.06l-1.34-2.74c5.23-6,10.47-12,16.49-18.9-5.63-.26-9.66-.45-15.31-.72,1.59-3.9,2.66-6.75,3.9-9.53,2.73-6.1,5.57-11.92,12.98-13.97,1.91-.53,3.12-3.6,4.65-5.51-.51-.49-1.02-.98-1.53-1.46-1.83.53-3.66,1.06-5.91,1.71-.9-.79-1.96-1.72-3.01-2.63.61-2.37,1.13-4.41,1.27-4.95,6.41-7.7,11.84-14.23,18.41-22.13-5.38-.43-7.96-.63-10.9-.87v-6.22c1.31-.77,2.57-1.51,3.55-2.09,4.28-8.2,8.4-16.09,12.61-24.15-8.12-7.39-15.65-14.25-24.98-22.74v15.6c-2.54.73-5.11,1.47-7.67,2.2-2.31-3.3-5.08-6.37-6.85-9.94-3.02-6.09-5.85-6.89-10.62-2.09-7.17,7.22-14.56,14.07-24.98,16.3-3.13.67-7.34.32-9.17,2.24-4.34,4.56-7.51,10.23-11.24,15.38-5.84,8.05-11.77,16.05-17.58,23.97-6.76-3.07-12.96-5.89-18.76-8.52-3.07,6.61-4.84,12.14-7.97,16.75-4.07,5.99-8.38,2.95-11.77-1.83-8.64,3.59-16.77,6.97-24.9,10.36-4.69-3.83-9.23-7.87-14.12-11.43-7.89-5.76-16.4-10.73-23.89-16.93-5.58-4.62-9.4-5.39-15-.3h-21.89c2.49-3.46,4.86-6.76,7.24-10.05-.08-.07-.16-.15-.25-.22,1.8-2.53,3.61-5.07,5.7-8-7.63-5.93-15.63-6.89-26.8-4.05,3.71-5.85,6.32-9.94,9.61-15.13-4.58-.85-8.81-1.64-13.01-2.42.26-1.92.49-3.63.73-5.34.48.09.97.19,1.45.28.62-3.18,1.24-6.36,1.85-9.54-.72-.28-1.44-.57-2.17-.85-11.05,8.43-21.63,17.63-34.44,23.14l-2.14-1.83c3.61-7.74,7.22-15.49,10.89-23.34-1.38-.98-3.04-2.16-4.8-3.41,7.78-8.46,15.44-16.8,23.11-25.14,3.24-1.41,6.49-2.83,9.05-3.94,2.6,2.23,4.43,3.79,6.26,5.35-.44.22-.87.45-1.31.67,4.03,7.45,8.06,14.9,11.08,20.49,17.29,4.73,24.24,18.68,35.08,26.39,5.57,1.25,11.51,1.09,15.48,3.81,7.66,5.24,13.82,12.65,21.35,18.11,5.91,4.29,12.96,7,19.51,10.41l1.88-2.55c-8.5-19.53-17.07-39.02-31.9-55.47-3.6-3.23-7.2-6.47-10.8-9.7l-2.43.35c-.29,3.22-.57,6.44-.97,10.91-15.65-6.66-23.27-24.25-39.02-32.38-.18,2.95-.31,5.03-.59,9.72-6.27-5.54-11.3-9.97-16.33-14.41.42-.35.84-.69,1.26-1.04-3.53-4.57-7.06-9.14-10.6-13.71ZM365.32,61.82c-5.11.52-10.25.86-15.34,1.6-14.93,2.16-29.84,4.47-38.16,5.73-97.13,26.87-167.23,79.52-216.3,161.98.05-.03-1.19.72-1.17.71-2.03,4.5-3.53,7.85-5.04,11.2-.34-.15-.68-.31-1.02-.46-2.98,7.98-5.96,15.95-9.16,24.53,4.93-.37,9.07-.69,12.25-.93,4.88-1.16,8.89-2,12.82-3.1,1.78-.5,4.09-1.06,4.98-2.39,2.47-3.64,3.95-7.97,6.5-11.54,3.01-4.22,6-9.27,10.29-11.6,11.08-6.01,23.25-10.02,34.24-16.15,9.22-5.14,13.37-5.65,21.3,1.38,7.11,6.31,14.26,12.6,21.54,18.71,4.12,3.45,8.55,6.53,14.18,10.78,5.62-2.55,12.56-5.7,21.95-9.97h15.88c3.53-6.91,6.9-13.77,10.51-20.5,1.92-3.57,3.44-8.35,6.55-10.09,7.15-4,15.15-6.48,24.21-10.14,3.95-10.63,8.46-22.76,12.6-33.9,10.43-4.4,20.08-8.47,29.61-12.49,7.56-22.96,27.64-35.43,43.28-53.9,3.62,2.31,7.97,4.19,11.12,7.29,5.79,5.7,10.47,12.54,16.36,18.12,5.57,5.28,9.32,10.98,11.44,18.49,1.09,3.88,5.15,7.52,8.76,9.92,3.31,2.2,8,2.21,11.73,3.93,2.47,1.14,4.92,3.24,6.32,5.55,1.8,2.96,2.44,6.6,3.75,9.88,6.43,16.04,18.82,24.28,35.57,27.12,1.56,1.33,3.29,2.81,3.35,2.86,2.39,5.19,3.95,8.56,5.51,11.93.35-.15.69-.31,1.04-.46.24,2.98.48,5.96.64,7.94,2.48,3.23,4.4,5.74,6.47,8.44,6.12,0,12.41-.81,18.4.2,8.06,1.36,11.85-4.18,15.2-8.92,4.88-6.89,8.34-14.71,17.75-16.62,1.87-.38,3.63-1.26,5.45-1.87,7.11-2.39,14.23-4.77,21.24-7.12,5.73,10.28,10.96,19.66,15.43,27.68,6.91,3.75,14.18,5.7,18.32,10.41,5.81,6.61,9.05,15.41,13.91,22.95,1.29,2.01,4.49,3.98,6.76,3.92,4.33-.11,8.62-1.7,12.18-2.51,7.89,6.02,14.8,11.76,22.24,16.71,2.55,1.7,6.6,2.41,9.61,1.82,3.57-.7,6.76-3.3,10.93-5.52,1.99-5.56-10.06-34.36-17.99-40.71-.23-1.7-.46-3.49-.7-5.27-1.49-.92-2.85-1.76-4.21-2.6.3-.23.6-.46.89-.69-3.58-5.92-7.15-11.83-10.39-17.19-1.99-2.49-3.71-4.7-5.49-6.86-7.86-9.54-15.34-19.44-23.71-28.51-8.83-9.57-18.26-18.63-27.89-27.41-6.34-5.79-13.33-10.9-20.3-15.95-8.56-6.21-17.2-12.36-26.17-17.95-6.52-4.07-13.63-7.18-20.47-10.74-7.05-3.66-13.84-7.99-21.19-10.89-15.18-5.98-30.65-11.21-46-16.75-2.61,0-4.81-1.75-7.26-2.25-7.37-1.51-14.81-2.7-22.27-3.71-11.61-1.57-23.25-2.89-34.87-4.31-1.24-.38-2.48-1.08-3.72-1.09-10.65-.08-21.31-.06-31.96.03-.77,0-1.54.82-2.31,1.26ZM73.28,404.01l-.26-1.13c-4.15-1.32-8.3-2.64-13.67-4.36v33.34c2.66,2.73,4.12,4.21,5.58,5.71,3.53.67,7.35,1.39,11.76,2.23,6.53-5.18,8.86-1.09,9.44,5,8.85,3.69,17.14,7.14,23.5,9.79,4.46-1.89,7.12-3.01,9.45-4,1.84,4.34,3.11,7.31,4.37,10.28.41-.55.82-1.1,1.23-1.65,4.49,1.86,8.96,3.81,13.5,5.55,1.64.63,3.46,1.04,5.2,1.08,5.88.13,11.77.05,17.72.05.34,3.06.58,5.13.83,7.41,6.14,2.33,12.05,4.8,18.11,6.81,6.06,2.02,12.28,3.58,19.26,5.58.13.68.5,2.54.91,4.62,4.96,1.25,9.95,2.01,14.53,3.82,4.69,1.85,8.97,4.74,13.43,7.18.11-.67.22-1.33.33-2,3.73.2,7.45.39,11.23.59.41,2.66.68,4.4.92,5.98,5.64,2.8,10.89,5.77,16.42,8.04,3.61,1.48,7.66,1.82,11.46,2.89,2.82.79,5.92,1.41,8.24,3.04,4.03,2.83,7.2,6.98,11.42,9.39,2.34,1.33,6.06.24,9.16.24.13-.89.25-1.78.38-2.67-52.1-43.46-112.55-72.44-173.55-100.81-16.96-7.34-33.92-14.68-50.88-22.02ZM629.63,539.09c18.66-4.7,37.92-6.25,53.05-17.73.34-4.27.53-6.74.72-9.13,1.46-.89,2.71-1.64,4.08-2.46,3.61-11.11,7.23-22.23,10.84-33.36-.43-.77-.87-1.54-1.3-2.31-23.02,7.91-46.04,15.83-69.06,23.74-34.45,13.96-68.58,28.76-101.19,46.94h-4.95c-16.22,7.46-32.57,14.54-45.69,26.97l.81,2.65c14.3-3.09,28.61-6.18,40.63-8.78,3.79-7.01,6.56-12.13,10.55-19.5,3.87,4.85,6.11,8.45,9.14,11.18,1.84,1.66,4.89,2.77,7.38,2.73,3.66-.06,7.34-1.18,10.92-2.2,3.44-.98,7.33-1.71,9.95-3.86,2.08-1.7,2.53-5.38,3.71-8.18-.14-.04-.28-.08-.42-.12,1.37-3.8,2.74-7.59,4.11-11.39,1.11,0,2.22.02,3.33.03,2.31,5.11,4.62,10.21,7.56,16.71,8.34-1.85,16.86-3.74,24-5.33,6.73-11.5,1.29-25.62,13.08-34.37.78,2.48,1.35,4.31,1.96,6.24,1.27.82,2.61,1.69,3.11,2.01,1.24,6.58,2.31,12.29,3.68,19.53ZM670.97,302.54c-1.33,12.88,9.22,19.51,14.41,30.53-4.07,1.11-8.31,2.27-15.3,4.18,8.34,7.55,15.57,14.1,23.35,21.15-.1,1.95-.24,4.66-.38,7.53-3.97.18-7.23.32-12.34.54,2.62,3.07,4.04,5.36,6.03,6.92,3.22,2.53,7.7,3.93,10.03,7.02,2.68,3.56,3.62,8.44,5.31,12.74-.75.52-1.51,1.04-2.26,1.56-5.18-.91-10.37-1.81-15.55-2.72-.4.63-.81,1.26-1.21,1.89,6.3,4.91,12.61,9.83,19.91,15.51.55,1.46,1.69,4.48,2.83,7.51.77-.05,1.54-.1,2.31-.15.58-3.52,1.61-7.03,1.68-10.56.73-33.68.32-67.29-5.92-100.6-1.04-5.55-3.26-7.76-8.39-7.1-8.06,1.04-16.07,2.43-24.1,3.69-.13.02-.24.22-.39.36ZM312.58,640.81c-1.03,1.13-2.06,2.25-3.09,3.38-.95-4.86-1.86-9.73-2.87-14.57-.57-2.72-.87-5.62-2.05-8.08-6.47-13.48-16.29-24.29-28.35-32.82-10.31-7.3-21.2-13.78-32.03-20.3-3.88-2.34-8.3-3.82-12.53-5.52-9.72-3.92-19.56-7.55-29.21-11.65-8.3-3.53-16.26-7.87-24.62-11.21-6-2.4-12.54-3.46-18.63-5.67-7.89-2.86-15.52-6.4-23.36-9.39-5.15-1.97-10.49-3.44-15.71-5.24-3.71-1.28-7.36-2.74-11.33-4.23-7.01-2.05-14.23-4.17-23.56-6.9,1.62,3.16,1.92,4.94,2.88,5.43,7.39,3.75,14.78,7.56,22.41,10.76,7.96,3.33,16.19,6.03,24.33,8.95,3.27,1.17,6.65,2.04,9.88,3.3,6.32,2.47,12.53,5.23,18.86,7.65,3.93,1.5,8.02,2.59,12.04,3.87.21-.26.42-.52.63-.78,34.09,16.67,68.18,33.34,98.9,48.36,11.95,16.31,21.56,29.43,31.16,42.54.59-.72,1.18-1.44,1.76-2.16l4.47,4.33ZM517.2,575.58c-18.25,4.99-35.62,9.75-53.3,14.58.8,2.51,1.25,3.96,1.6,5.07,2.21.51,4.2.68,5.94,1.42,9.05,3.87,17.75,8.8,27.11,11.59,10.09,3.01,20.25,1.77,28.66-6.3-.78-7.06,3.42-16.92-10.01-16.75v-9.62ZM673.23,540.71c-4.67-.23-7.53-.92-10.15-.39-6.42,1.3-12.68,3.37-19.09,4.73-9.31,1.98-11.72,4.89-10.92,13.92.11,1.25-.16,2.53-.26,3.83-2.14.12-3.96.22-7.7.42-.45,4.57-.92,9.37-1.42,14.49,7.45,0,13.93.21,20.37-.13,1.85-.1,4.17-1.34,5.31-2.81,4.1-5.3,7.8-10.91,11.63-16.42,3.64-5.24,7.26-10.49,12.21-17.65ZM535.27,618.53c20.85,2.65,41.7,5.3,62.91,8,4.79-3.6,9.87-7.42,15.68-11.79-1.25-2.7-2.48-5.36-3.75-8.09-25.1,4.58-51.13-2.28-74.84,11.88ZM566.18,565.45c-10.54,2.16-19.26,3.95-28.69,5.88,1.87,2.84,2.68,4.46,3.85,5.76,2.68,3.02,2.84,6.63-1.03,7.43-10.25,2.14-6.46,9.34-6.91,15.16q10.59,3.33,15.26-2.74c7.86-1.36,14.99-2.59,22.17-3.83v-16.31c-2.5-.98-4.87-1.91-7.11-2.79.65-2.26,1.28-4.46,2.46-8.57ZM136.65,587.23c3.26.75,4.86.82,6.17,1.46,7.97,3.88,15.75,8.15,23.82,11.79,10.77,4.86,22.4,8.15,32.47,14.12,14.7,8.71,28.29,19.26,42.48,28.86,2.1,1.42,4.83,1.92,7.26,2.84.58-.75,1.16-1.5,1.73-2.25-6.53-6.66-12.37-14.24-19.77-19.73-7.93-5.9-17.27-9.92-26.07-14.63-8.72-4.66-17.34-9.57-26.35-13.58-7.36-3.27-15.18-5.55-22.91-7.91-3.93-1.2-8.09-1.74-12.19-2.28-1.42-.19-2.95.54-6.65,1.3ZM606.2,556.4c-8.65,1.7-15.89,3.13-23.62,4.65,1.18,4.71,1.99,7.94,2.8,11.14-6.27,1.8-7.75,6.03-5.42,15.24,1.95,0,4.1.37,6.06-.07,6.06-1.36,11.99-4.05,18.07-4.36,14.66-.76,13.84-5.63,12.21-16.68-3.41-.4-6.83-.81-9.69-1.15-.15-3.24-.24-5.32-.39-8.78ZM470.08,618.83c-.01-.77-.02-1.54-.03-2.31-4.01-2.55-7.98-5.18-12.05-7.63-4.89-2.95-9.88-5.75-14.82-8.62-3.39-1.97-6.76-3.97-10.14-5.96-.28.75-.55,1.5-.83,2.25-1.82,1.5-3.64,3-7.02,5.78,1.8,2.05,3.23,4.9,5.51,6.05,4.82,2.41,10.11,3.85,15.15,5.82,2.58,1.01,4.95,2.92,7.59,3.32,5.49.83,11.08.92,16.64,1.31ZM646.12,444.01c-6.44-.38-12.36-.73-18.16-1.08-1.08-2.1-1.96-3.81-3.12-6.07-2.99,1.25-5.74,2.4-10.94,4.58,6.86,5.32,12.16,9.43,18.34,14.22.02.1.25,1.53.47,2.85,5.78,2.51,8.97-.76,13.41-14.5ZM305.83,545.36c-3.37,2.78-4.25,5.04-.14,7.49,5.14,3.07,10.02,6.55,15.16,9.61,3.86,2.29,7.97,4.19,13.6,7.11-.72-13.18-13.52-11.61-16.58-19.51-2.05-.13-4.19-.26-6.38-.39-1.86-1.41-3.79-2.88-5.67-4.3ZM120.75,469.73c1.41,5.67,24.06,15.34,30.54,13.14,0-1.13.44-3.24-.07-3.5-8.76-4.5-17.63-8.78-26.49-13.11-1.26,1.1-2.55,2.23-3.98,3.48ZM269.04,528.24c-9.61-4.62-18.31-8.8-27.31-13.12-1.42,2.94-2.01,4.18-3.09,6.42,8.9,4.38,17.49,8.62,26.79,13.2,1.3-2.34,2.29-4.12,3.62-6.5ZM227.18,508.76c-9.91-3.75-18.05-6.83-26.44-10.01-1.3,5.78,21.8,18.3,29.24,16.99-1.23-3.08-2.36-5.9-2.79-6.99ZM189.75,494.03c-7.1-3.58-13.3-7.09-19.84-9.78-1.98-.81-5.09.23-7.28,1.27-.87.41-.63,3.14-.74,3.82,9.53,3.94,17.83,7.38,26.89,11.13.4-2.64.67-4.45.97-6.44ZM514.46,64.41c9.25,4.44,18.28,8.77,27.31,13.1l1.08-2.06c-9.15-4.71-18.3-9.41-27.93-14.37-.23,1.69-.35,2.59-.45,3.33ZM393.16,728.16c0,.25-.01.5-.02.75h8.59c0-.25,0-.5,0-.75h-8.56ZM338.36,574.56l2.21.17c.1-1.5.19-3,.29-4.49-.68-.05-1.36-.11-2.05-.16-.15,1.49-.3,2.99-.45,4.48ZM108.95,468.29c-1.69-1.99-2.41-3.55-3.16-3.57-1.14-.02-2.31,1.02-3.47,1.6.13.47.27.94.4,1.41,1.5.13,3,.27,6.23.56Z"/><path class="uuid-7d0fc552-ed7d-4a0d-9213-150db2bed77f" d="M437.25,332.07c5.6-5.1,9.42-4.33,15,.3,7.49,6.21,16,11.18,23.89,16.93,4.88,3.57,9.42,7.61,14.12,11.43-.36,1.05-.41,2.72-1.11,3.07-9.04,4.5-18.15,8.89-27.31,13.16-7.04,3.28-14.18,6.34-21.08,9.42,1.61,9.33,15.85,20.12,21.87,17.04.82-1,1.74-2.13,1.45-1.77,9.09-3.13,16.52-5.68,23.95-8.23-.1-.19-.21-.37-.31-.56,3.4-1.64,6.8-3.27,10.2-4.91,3.33-1.62,6.74-2.84,9.94-4.48,8.87-4.56,18.01-8.74,26.38-14.1,10.15-6.49,19.73-13.9,29.36-21.17,7.74-5.84,14.9-12.48,22.84-18.02,15.69-10.95,31.75-21.38,47.66-32.03,2.57-.74,5.13-1.47,7.67-2.2v-15.6c9.33,8.49,16.87,15.35,24.98,22.74-4.21,8.06-8.33,15.95-12.61,24.15-.98.57-2.24,1.31-3.55,2.09v6.22c2.94.23,5.52.44,10.9.87-6.57,7.9-12,14.43-18.41,22.13-.14.55-.66,2.58-1.27,4.95,1.05.92,2.11,1.85,3.01,2.63,2.25-.65,4.08-1.18,5.91-1.71.51.49,1.02.98,1.53,1.46-1.53,1.9-2.74,4.98-4.65,5.51-7.42,2.05-10.25,7.87-12.98,13.97-1.24,2.77-2.31,5.62-3.9,9.53,5.65.26,9.69.45,15.31.72-6.02,6.9-11.25,12.9-16.49,18.9l1.34,2.74c5.48.69,10.95,1.37,16.43,2.06.15.7.29,1.4.44,2.1-7.41,4.62-14.82,9.25-22.29,13.91-3.22-3.67-5.85-6.66-8.7-9.91,3.4-1.78,6.12-3.21,10.6-5.55-7.91-9.53-15.02-18.1-22.56-27.18,3.03-1.22,5.4-2.17,9.83-3.95-3.91-6.54-7.63-12.77-11.99-20.07,1.2-.55,3.35-1.55,7.42-3.43-2.98-6.07-6.17-12.56-9.35-19.05-.35.18-.71.37-1.06.55-.64-2.89-1.28-5.78-2.31-10.46-6.08,10.93-11.22,20.15-16.71,30.03,3.59.51,5.8.83,8.6,1.23-.31,8.97-8.01,10.56-12.88,14.59-1.29-2.59-2.58-5.18-3.78-7.57-30.33,12.14-60.55,24.23-90.65,36.28,7.2,9.06,16.5,16.16,28.9,18.04,4.48-2.72,8.78-5.16,12.89-7.88,5.56-3.67,10.99-7.53,16.44-11.36,4.45-3.13,8.44-7.65,13.37-9.21,7.8-2.46,14.05-6.49,19.41-12.35.92,1.72,1.85,3.43,3.06,5.69,1.77.23,4.25.55,6.57.84-5.79,8.19-11.27,15.94-17.62,24.9,2.67,1.71,5.24,3.37,8.54,5.48-2.27,3.17-5.14,7.18-8,11.18,8.84,6.59,8.56,6.95-.56,13.82-3.98,3-6.7,7.51-2.02,12.78,2.13.43,4.44.89,7.12,1.42-5.29,6.07-10.14,11.63-14.91,17.09,1.85,2.04,3.02,3.33,3.36,3.71,3.83,1.37,6.63,2.38,12.37,4.43-6.88,5.56-12.14,9.82-17.9,14.48-.46-1.38-.93-2.79-1.39-4.2-.68.69-1.37,1.39-2.05,2.08-2.26-2.67-4.52-5.34-7.91-9.33,4.47-1,6.47-1.45,9.1-2.04-3.22-5.55-6.23-10.74-9.22-15.89,7.18-6,6.34-9.56-1.68-15.85-2.32-9.09-4.12-16.09-6.2-24.22-8.76,4.05-9.18,11.37-12.1,17.26,1.2,1.44,2.22,2.66,3.45,4.14-3.29,4.18-6.61,8.4-10.25,13.02,2.67,1.82,4.27,2.91,6.46,4.41-3.37,5.32-6.77,10.7-10.22,16.15,2.25,2.04,3.65,3.32,5.35,4.85-2.03,1.7-3.79,3.16-5.95,4.96-1.41-2.05-2.75-4.01-4.09-5.97-.22.3-.43.6-.65.91-2.53-1.84-5.06-3.67-8.04-5.84,5.83-4.18,6.36-7.3,1.32-11.27-2.56-2.02-3.89-5.59-5.8-8.48,3.92-5.29,1.09-16.7-6.52-21.73-3.63,6.01-7.23,11.97-11.3,18.72,2.82,1.41,5.04,2.52,6.76,3.38-3.14,4.02-6.71,8.59-10.43,13.35,2.48,1.87,3.91,2.96,5.07,3.84-3.22,4.18-6.06,7.86-9.36,12.15,2.54,1.69,4.75,3.16,6.84,4.56-2.67,4.24-5.3,8.4-8.23,13.07,4.01,1.13,6.45,1.82,9.48,2.68-3.48,4.59-6.56,8.66-10.62,14.02,4.72.46,6.82.67,9.35.91.44,1.2.91,2.49,1.26,3.45-8.61,7.93-16.75,15.44-24.89,22.94-.48-.44-.96-.88-1.44-1.32-.46,1.88-.92,3.76-1.46,6.01h-85.88c1.99-2.77,3.42-4.77,5.17-7.21-1.9-2.98-3.88-6.06-5.61-8.78,1.95-1.84,3.44-3.25,5.16-4.87-2.78-3.17-5.05-5.76-7.83-8.93,2.84-1.26,4.71-2.08,6.88-3.05-.49-2.09-.97-4.12-1.44-6.14-1.42-.51-2.78-1-4.93-1.77.55-2.51,1.08-4.91,1.85-8.38-1.04-1.24-2.76-3.31-5.09-6.09v-12.55c-1.56-.55-2.78-.98-4.07-1.44-.33-1.33-.67-2.7-1.21-4.89-1.21,3.78-2.18,6.8-3.14,9.81.12.1.25.19.37.29-4.41,11.14-8.82,22.28-13.86,35.02-5.32-5.94-9.41-10.51-14.64-16.34,4.36-.24,6.17-.34,8.86-.48.47-2.42.98-5.01,1.38-7.04-2.75-2.85-4.98-5.17-7.59-7.89,2.18-1.21,4.1-2.27,6.33-3.51,1.37-13.17-11.96-17.18-19.08-26.99h13.85c.57-.6,1.15-1.2,1.72-1.8-2.29-3.03-4.63-6.02-6.84-9.11-2.29-3.19-4.44-6.48-6.66-9.73,1.86-1.95,3.23-3.38,5.68-5.94-4.27-5.4-8.65-10.95-13.23-16.73,5.88-4,4.07-8.44.12-13.57-2.17-2.82-2.91-6.72-4.72-11.18-4.16,6.49-7.99,12.47-12.37,19.31v4.64c2.22.36,4.27.69,6.77,1.09-5.09,6.2-9.98,12.16-15.61,19.02,3.45,1.06,5.51,1.69,9.89,3.03-4.9,5.56-9.23,10.47-13.8,15.65-3.82-4.99-7.63-9.99-11.69-15.29,1.87-1.21,3.73-2.42,7.16-4.64-4.69-5.75-9.36-11.47-14.38-17.62,2.03-1.31,4-2.58,6.65-4.29-2.64-3.75-5.33-7.41-7.83-11.2-.75-1.14-1.78-3.3-1.32-3.86,3.85-4.67.36-7.75-1.89-11.32-2.26-3.57-4.09-7.42-6.28-11.46-4.34,5.9-8.24,10.68-11.46,15.88-.99,1.6,0,4.35-.12,6.56-.14,2.4.04,5.04-.92,7.1-1.44,3.07-3.75,5.72-5.79,8.69,3.22,1.58,5.28,2.59,7.86,3.86-5.08,5.4-9.52,10.13-15.01,15.96-1.76-.82-4.53-2.26-7.42-3.39-2.84-1.12-5.8-1.93-9.47-3.13-1.66-2.69-3.77-6.12-6.04-9.79,3.98-1.7,9.53-2.39,10.78-5.08,1.3-2.8-1.54-7.52-2.23-10.12-3.99-2.25-7.03-3.97-10.07-5.68.18-.56.36-1.11.54-1.67,2.7-.27,5.41-.55,8.11-.82,5.47-8.48-9.13-9.36-6.19-17.2,1.91-.26,3.81-.52,8.13-1.1-5.63-6.64-10.49-12.36-15.69-18.49,3.85-2.3,6.84-4.09,10.2-6.11-2.75-3.58-5.11-6.65-7.99-10.4-.52-.13-1.95-.47-3.75-.89-1.47-2.56-3.07-5.36-4.92-8.59,2.26-1.04,4.11-1.89,7.02-3.23-4.27-10.23-8.55-20.46-13.29-31.79-5.58,11.28-10.59,21.42-15.75,31.85,1.83.83,4.14,1.88,8.17,3.71-5.51,6.24-10.51,11.91-15.91,18.02.62,1.23,1.4,2.79,2.15,4.3,2.12.18,3.91.34,8.39.72-6.33,7.08-11.52,12.88-17.56,19.63,4.26,2.06,7.61,3.68,10.16,4.91-5.02,5.42-9.18,9.89-13.32,14.36-1.36-1.87-2.87-3.95-4.61-6.34v-8.61c-1.32-1.05-2.58-2.05-4.46-3.55,7.36-10.07-.9-15.36-6.65-21.59-10.61,10.14-12.02,13.64-7,17.68-2.22,3.61-4.45,7.25-6.65,10.84-6.58.03-7.18-1.01-9.83-13.96-.31-2.85-.63-5.7-.94-8.55.73-.17,1.45-.34,2.18-.51l-4.82-8.29c.47-.16.93-.31,1.4-.47-2.47-6.63-4.93-13.27-7.89-21.22-4.75,5.68-8.5,10.16-12.38,14.81,2.44,2.1,3.67,3.15,4.42,3.8-1.77,6.34-3.47,12.43-5.39,19.32-6.8-2.73-13.54-5.43-20.52-8.23-1.67-21.68-.44-42.8,5.8-63.5,9.61-.3,19.4.39,28.79-1.2,9.05-1.54,17.7-5.45,28.26-8.89-6.19,13.85-19.75,16.73-29.73,24.9,2.02.69,2.64,1.12,3.22,1.08,13.13-.99,26.27-1.88,39.38-3.15,4.32-.42,8.5-2.12,12.82-2.76,8.64-1.28,10.76-9.04,14.9-14.69,4.61-6.3,10.24-12.44,7.08-21.38.56-2.19,1.12-4.38,1.79-7.02,5.55-1.78,10.46-1.31,15.88,2.33,8.69,5.84,18.16,10.52,27.26,15.75,1.85,1.06,3.52,2.42,5.82,4.02-7.92,1.91-14.77,3.56-21.61,5.21-.13.58-.27,1.15-.4,1.73,4.11,2.07,8.24,4.1,12.32,6.22,6.33,3.29,12.63,6.64,18.94,9.97-.62,1.93-1.24,3.86-1.59,4.93-8.21,2.22-15.26,4.12-23.12,6.25,1.65,1.97,2.05,2.91,2.72,3.18,8.04,3.25,15.89,7.53,24.26,9.21,6.37,1.28,14.62,2.23,18.38-8.39,16.82,3.47,30.42-3.67,40.98-15.05,8.54-3.39,15.95-6.34,24.56-9.76h8.79c-6.15,14.1-21.16,19.76-27.85,34.66,12.66-3.35,23.76-6.29,34.18-9.05,1.74,3.33,2.7,5.14,3.9,7.43,15.9-6.18,29.53-17.38,48.05-17.29-3.33,14.83-17.64,20.56-25.28,32.87,19.58-.47,37.87-.61,55.92,6.09,10.93,5.86,15.46-1.25,18.47-10.93-2.55-3.47-5.29-7.2-8.58-11.66,2.76-1.47,4.97-2.19,6.57-3.6,2.37-2.07,4.31-4.63,6.43-6.98ZM246.18,385.09c8.81,4.02,17.19,7.84,25.67,11.71,16.49,3.35,32.96,8.23,50.62,4.2.42-.61,1.23-1.77,1.73-2.49,3.86-.5,7.13-.92,10.4-1.35.15-.87.3-1.73.45-2.6-10.22-3.54-20.44-7.08-31.8-11.01-1.04-2.1-2.62-5.26-5-10.05-2.05-.3-5.5-1.29-8.91-1.18-5.18.17-10.31,1.38-15.5,1.69-12.85.78-25.7,1.37-38.56,1.9-4.82.2-9.66-.07-14.48.08-1.44.04-2.87.75-6.13,1.66,11.75,3.55,20.08,12.01,31.51,7.44Z"/><path class="uuid-d83fdcc8-51c7-48b0-9fa6-a0617d9b6bc4" d="M403.31,61.62c11.63,1.42,23.27,2.74,34.87,4.31,7.46,1.01,14.9,2.2,22.27,3.71,2.45.5,4.65,2.25,7.26,2.25,15.35,5.54,30.83,10.76,46,16.75,7.35,2.9,14.14,7.23,21.19,10.89,6.84,3.55,13.95,6.67,20.47,10.74,8.97,5.59,17.61,11.74,26.17,17.95,6.96,5.05,13.96,10.17,20.3,15.95,9.62,8.79,19.06,17.84,27.89,27.41,8.37,9.08,15.85,18.97,23.71,28.51,1.78,2.16,3.49,4.36,5.49,6.86,3.24,5.36,6.81,11.27,10.39,17.19-.3.23-.6.46-.89.69,1.36.84,2.72,1.68,4.21,2.6.24,1.78.47,3.57.7,5.27,7.93,6.35,19.98,35.15,17.99,40.71-4.17,2.21-7.37,4.81-10.93,5.52-3.02.59-7.06-.12-9.61-1.82-7.44-4.95-14.35-10.69-22.24-16.71-3.56.81-7.85,2.4-12.18,2.51-2.27.06-5.47-1.91-6.76-3.92-4.86-7.53-8.1-16.34-13.91-22.95-4.14-4.71-11.41-6.66-18.32-10.41-4.47-8.02-9.7-17.39-15.43-27.68-7,2.35-14.12,4.72-21.24,7.12-1.82.61-3.59,1.49-5.45,1.87-9.41,1.91-12.87,9.73-17.75,16.62-3.36,4.74-7.14,10.28-15.2,8.92-5.99-1.01-12.28-.2-18.4-.2-2.07-2.7-3.99-5.21-6.47-8.44-.16-1.98-.4-4.96-.64-7.94-.35.15-.69.31-1.04.46-1.56-3.37-3.11-6.74-5.51-11.93-.06-.05-1.79-1.53-3.35-2.86-16.75-2.85-29.15-11.08-35.57-27.12-1.31-3.28-1.95-6.92-3.75-9.88-1.4-2.31-3.85-4.41-6.32-5.55-3.74-1.72-8.42-1.73-11.73-3.93-3.61-2.4-7.66-6.04-8.76-9.92-2.12-7.51-5.86-13.21-11.44-18.49-5.89-5.58-10.57-12.42-16.36-18.12-3.15-3.1-7.5-4.98-11.12-7.29-15.64,18.48-35.72,30.95-43.28,53.9-9.53,4.02-19.18,8.09-29.61,12.49-4.14,11.14-8.65,23.27-12.6,33.9-9.06,3.66-17.06,6.14-24.21,10.14-3.1,1.74-4.63,6.52-6.55,10.09-3.61,6.73-6.99,13.59-10.51,20.5h-15.88c-9.39,4.27-16.33,7.42-21.95,9.97-5.63-4.26-10.07-7.33-14.18-10.78-7.29-6.11-14.43-12.4-21.54-18.71-7.93-7.04-12.09-6.52-21.3-1.38-11,6.13-23.17,10.14-34.24,16.15-4.29,2.32-7.28,7.38-10.29,11.6-2.55,3.57-4.04,7.89-6.5,11.54-.9,1.33-3.2,1.89-4.98,2.39-3.93,1.1-7.94,1.94-12.82,3.1-3.18.24-7.32.56-12.25.93,3.2-8.58,6.18-16.55,9.16-24.53.34.15.68.31,1.02.46,1.51-3.35,3.01-6.7,5.04-11.2-.01,0,1.23-.75,1.17-.71,49.08-82.45,119.18-135.11,216.3-161.98,8.32-1.26,23.23-3.57,38.16-5.73,5.08-.73,10.22-1.08,15.34-1.6.84.55,1.67,1.57,2.51,1.58,10.87.11,21.75.13,32.62,0,.96-.01,1.91-1.16,2.87-1.77Z"/><path class="uuid-d83fdcc8-51c7-48b0-9fa6-a0617d9b6bc4" d="M437.25,332.07c-2.12,2.35-4.06,4.91-6.43,6.98-1.61,1.4-3.81,2.13-6.57,3.6,3.28,4.47,6.03,8.2,8.58,11.66-3.01,9.68-7.54,16.79-18.47,10.93-18.05-6.7-36.34-6.56-55.92-6.09,7.64-12.31,21.95-18.05,25.28-32.87-18.52-.08-32.15,11.12-48.05,17.29-1.2-2.29-2.15-4.1-3.9-7.43-10.41,2.76-21.51,5.7-34.18,9.05,6.69-14.89,21.7-20.56,27.85-34.66h-8.79c-8.61,3.42-16.02,6.36-24.56,9.76-10.56,11.39-24.17,18.52-40.98,15.05-3.76,10.62-12.01,9.67-18.38,8.39-8.37-1.69-16.22-5.96-24.26-9.21-.67-.27-1.07-1.21-2.72-3.18,7.87-2.13,14.91-4.03,23.12-6.25.35-1.07.97-3,1.59-4.93,12.82,4.45,21.18-6.77,34.73-10.62,15.31-11.43,33.06-24.68,50.81-37.93-.24-.4-.49-.81-.73-1.21,2.45-.46,4.9-.92,9.22-1.73-2.25,6.57-4,11.71-5.88,17.22,9.06.14,49.27-37.26,48.63-44.81-3.9,1.01-7.71,2-12.84,3.34,3.48-7.99,6.65-15.3,9.86-22.68-7.94-2.45-11.44,4.34-16.38,7.79-4.21,2.94-7.72,6.88-11.9,9.87-10.42,7.47-21.02,14.68-31.6,21.93-2.2,1.5-4.59,2.71-6.9,4.06-.59-.37-1.19-.74-1.78-1.1,1.31-2.7,2.94-5.3,3.85-8.13.96-2.96,1.23-6.14,2.14-11.05-8.29,6.76-14.7,11.99-21.1,17.22-4.36,2.07-8.72,4.13-13.59,6.44-.64-1.83-1.1-3.15-1.57-4.48,3.39-5.11,7.14-10.02,10.05-15.39,2.93-5.4,4.8-11.36,7.59-16.86.78-1.55,3.15-3.28,4.76-3.25,7.23.17,14.44.94,25.16,1.76,10.33-9.11,26.7-17.22,37.74-34.68-5.11.23-7.69.35-8.44.38-8.95,5.27-16.42,9.67-23.88,14.07-.52-.55-1.03-1.1-1.55-1.65,2.9-8.94,5.8-17.87,8.88-27.36,1.98-1.03,4.73-2.45,6.87-3.57,8.48-5.88,19.6-6.1,24.04-16.99,2.46-6.05,5.51-12.05,9.39-17.26,2.8-3.77,7.4-6.21,11.18-9.26,1.35-1.09,2.65-2.23,4.85-4.09,1.75,3.23,3.59,6.62,6.43,11.85-6.55,8.02-13.47,16.49-20.94,25.63h15.27c14.56,11.96,13.29,16.04.35,32.12,2.08,5.32,5.96,3.38,9.89,2.61,2.95-.58,6.1-.11,7.3-.11-.4,6.61-.72,11.76-1.03,16.92-1.76,1.91-3.53,3.83-6.65,7.21.63-.29-.68.31-3.27,1.49,2.75,4.31,5.27,8.26,7.84,12.29-1.75,2.12-3.34,4.06-4.94,6-7.66,8.34-15.33,16.68-23.11,25.14,1.76,1.25,3.42,2.43,4.8,3.41-3.66,7.86-7.27,15.6-10.89,23.34l2.14,1.83c12.81-5.51,23.39-14.71,34.44-23.14.72.28,1.44.57,2.17.85-.62,3.18-1.24,6.36-1.85,9.54-.48-.09-.97-.19-1.45-.28-.23,1.71-.47,3.42-.73,5.34,4.21.78,8.43,1.57,13.01,2.42-3.29,5.19-5.9,9.28-9.61,15.13,11.18-2.84,19.18-1.87,26.8,4.05-2.09,2.93-3.89,5.46-5.7,8,.08.07.16.15.25.22-2.37,3.3-4.75,6.59-7.24,10.05h21.89Z"/><path class="uuid-d83fdcc8-51c7-48b0-9fa6-a0617d9b6bc4" d="M420.4,587.97c-4.34,2.91-8.68,5.83-13.24,8.89-10.84,16.56,6.08,19.19,14.05,25.78,9.25,2.78,18.48,5.54,27.7,8.31-.1.71-.2,1.42-.3,2.13,12.34,1.29,25.22.82,36.84,4.43,9.04,2.8,17.76,3.45,26.83,4.42,17.23,1.83,34.37,4.47,51.55,6.78.19-.67.38-1.35.57-2.02,1.59,1.59,3.18,3.17,5.48,5.47-5.93,2.82-11.34,5.01-16.37,7.88-6,3.42-11.51,7.7-17.52,11.1-5.6,3.17-11.51,5.85-17.42,8.43-7.77,3.38-15.68,6.45-23.53,9.67-.45.18-.81.62-1.27.75-9.2,2.58-18.66,4.46-27.55,7.83-13.18,5-26.78,5.23-40.48,6.23-3.63.26-6.9,2.52-9.89-.95-1.09-1.27-1.85-2.91-2.44-4.5-2.37-6.4-4.43-12.92-6.98-19.24-1.98-4.93-4.52-9.63-6.46-15.06-4.31-5.18-8.22-10.76-13.01-15.45-6.97-6.81-14.76-12.78-21.77-19.55-1.8-1.74-2.01-5.13-2.88-7.79-.76-2.3-1.41-4.64-2.44-8.03,1.65-5.51,3.61-12.1,5.58-18.69,1.2-.26,2.41-.53,3.52-.77.18-3.28.33-6.03.51-9.32,16.39,0,32.31-.05,48.22.14.92.01,1.81,2.04,2.71,3.14Z"/><path class="uuid-d83fdcc8-51c7-48b0-9fa6-a0617d9b6bc4" d="M73.28,404.01c16.96,7.34,33.92,14.68,50.88,22.02,61,28.37,121.45,57.35,173.55,100.81-.13.89-.25,1.78-.38,2.67-3.1,0-6.82,1.09-9.16-.24-4.22-2.4-7.39-6.56-11.42-9.39-2.32-1.63-5.41-2.24-8.24-3.04-3.79-1.07-7.85-1.41-11.46-2.89-5.54-2.27-10.79-5.24-16.42-8.04-.24-1.59-.51-3.32-.92-5.98-3.77-.2-7.5-.4-11.23-.59-.11.67-.22,1.33-.33,2-4.46-2.43-8.74-5.32-13.43-7.18-4.58-1.81-9.58-2.57-14.53-3.82-.41-2.08-.77-3.95-.91-4.62-6.98-2-13.19-3.56-19.26-5.58-6.06-2.01-11.96-4.48-18.11-6.81-.26-2.29-.49-4.36-.83-7.41-5.96,0-11.84.08-17.72-.05-1.75-.04-3.56-.45-5.2-1.08-4.54-1.74-9-3.69-13.5-5.55-.41.55-.82,1.1-1.23,1.65-1.26-2.97-2.53-5.95-4.37-10.28-2.33.99-4.99,2.11-9.45,4-6.36-2.65-14.65-6.1-23.5-9.79-.58-6.1-2.91-10.18-9.44-5-4.41-.83-8.22-1.56-11.76-2.23-1.47-1.5-2.92-2.99-5.58-5.71v-33.34c5.38,1.71,9.53,3.03,13.67,4.36l.26,1.13Z"/><path class="uuid-d83fdcc8-51c7-48b0-9fa6-a0617d9b6bc4" d="M629.63,539.09c-1.36-7.24-2.44-12.95-3.68-19.53-.5-.32-1.84-1.19-3.11-2.01-.61-1.93-1.18-3.76-1.96-6.24-11.79,8.75-6.35,22.87-13.08,34.37-7.14,1.59-15.66,3.48-24,5.33-2.94-6.49-5.25-11.6-7.56-16.71-1.11,0-2.22-.02-3.33-.03-1.37,3.8-2.74,7.59-4.11,11.39.14.04.28.08.42.12-1.18,2.8-1.63,6.48-3.71,8.18-2.62,2.15-6.51,2.88-9.95,3.86-3.57,1.02-7.26,2.14-10.92,2.2-2.49.04-5.54-1.07-7.38-2.73-3.03-2.73-5.27-6.33-9.14-11.18-3.99,7.37-6.76,12.49-10.55,19.5-12.03,2.6-26.33,5.69-40.63,8.78l-.81-2.65c13.12-12.43,29.48-19.51,45.69-26.97h4.95c32.61-18.17,66.74-32.98,101.19-46.94,23.02-7.91,46.04-15.83,69.06-23.74.43.77.87,1.54,1.3,2.31-3.62,11.13-7.23,22.25-10.84,33.36-1.36.82-2.61,1.58-4.08,2.46-.19,2.39-.38,4.85-.72,9.13-15.13,11.48-34.39,13.03-53.05,17.73Z"/><path class="uuid-d83fdcc8-51c7-48b0-9fa6-a0617d9b6bc4" d="M634.1,298.14c-15.91,10.65-31.96,21.08-47.66,32.03-7.94,5.54-15.1,12.18-22.84,18.02-9.63,7.27-19.21,14.68-29.36,21.17-8.38,5.36-17.51,9.54-26.38,14.1-3.19,1.64-6.6,2.87-9.94,4.48-3.4,1.64-6.8,3.27-10.2,4.91.1.19.21.37.31.56-7.43,2.55-14.85,5.11-23.95,8.23.29-.36-.63.77-1.45,1.77-6.02,3.08-20.26-7.71-21.87-17.04,6.9-3.07,14.04-6.14,21.08-9.42,9.16-4.27,18.26-8.65,27.31-13.16.71-.35.76-2.01,1.11-3.07,8.13-3.38,16.26-6.76,24.9-10.36,3.39,4.79,7.7,7.82,11.77,1.83,3.13-4.61,4.91-10.14,7.97-16.75,5.8,2.64,12,5.45,18.76,8.52,5.82-7.92,11.74-15.92,17.58-23.97,3.74-5.15,6.9-10.82,11.24-15.38,1.83-1.92,6.04-1.57,9.17-2.24,10.42-2.22,17.81-9.07,24.98-16.3,4.77-4.8,7.6-4,10.62,2.09,1.77,3.57,4.53,6.64,6.85,9.94Z"/><path class="uuid-d83fdcc8-51c7-48b0-9fa6-a0617d9b6bc4" d="M170.45,281.95c3.15,8.94-2.47,15.08-7.08,21.38-4.14,5.66-6.26,13.41-14.9,14.69-4.32.64-8.5,2.34-12.82,2.76-13.1,1.27-26.25,2.16-39.38,3.15-.58.04-1.2-.38-3.22-1.08,9.98-8.16,23.54-11.05,29.73-24.9-10.57,3.44-19.22,7.35-28.26,8.89-9.39,1.6-19.18.9-28.79,1.2,2.41-8.42,7.3-13.32,16.41-15.56,7.66-1.89,14.53-6.89,21.8-10.39,4.91-2.37,10-4.38,14.87-6.83,3.29-1.66,6.35-3.79,8.5-6.47,2.94-4.49,5.2-9.7,9.01-13.25,3.6-3.36,8.82-4.97,15.16-8.31.86-.11,3.94-.5,7.88-1.01-.28,2.93-.55,5.78-.94,9.92,7.08-3.55,13.35-6.69,19.61-9.83.88.87,1.77,1.73,2.65,2.6-2.87,5.08-5.75,10.16-8.62,15.25-.3-.12-.6-.23-.89-.35-3.3,4.93-6.61,9.86-10.37,15.47,3.9,1.08,6.78,1.88,9.65,2.67Z"/><path class="uuid-d83fdcc8-51c7-48b0-9fa6-a0617d9b6bc4" d="M333.39,630.75c-3.08-6.62-6.1-13.26-9.25-19.85-1.51-3.14-3.23-6.18-4.9-9.24-2.64-4.82-4.68-10.19-8.2-14.26-2.65-3.06-7.21-4.48-10.96-6.58-6.1-3.41-12.17-6.9-18.38-10.1-5.46-2.82-11.15-5.2-16.66-7.93-10.28-5.1-20.48-10.35-30.76-15.45-5.24-2.6-10.44-5.33-15.89-7.41-9.69-3.69-19.72-6.49-29.27-10.49-7.81-3.27-14.98-8.02-22.69-11.54-3.72-1.7-8.16-1.76-12.09-3.11-4.9-1.69-9.58-4-14.4-5.93-2.35-.94-4.85-1.48-7.2-2.42-7.51-3-14.92-6.29-22.5-9.1-4.31-1.6-8.89-2.46-12.85-5-7.99-2.81-15.97-5.61-23.73-8.34v-8.3c5.9,1.11,11.71,1.65,17.15,3.34,8.21,2.55,16.14,5.97,24.23,8.9,5.74,2.08,11.65,3.72,17.32,5.98,5.21,2.07,10.15,4.81,15.29,7.06,4.55,1.98,9.18,3.82,13.86,5.49,7.49,2.68,15.14,4.91,22.54,7.82,10.1,3.98,20.02,8.4,30.01,12.66,7.84,3.35,15.71,6.64,23.49,10.13,11.5,5.16,23.08,10.17,34.34,15.81,11.16,5.58,21.97,11.87,32.96,17.8,2.09,1.13,4.63,1.66,6.39,3.15,4.47,3.8,9.73,7.32,12.63,12.17,4.22,7.06,6.64,15.19,9.84,22.87.06.14.26.25.29.39,1.11,7.16,2.21,14.31,3.31,21.47-1.3,0-2.6,0-3.91-.01Z"/><path class="uuid-7d0fc552-ed7d-4a0d-9213-150db2bed77f" d="M392.33,246.17c1.6-1.94,3.19-3.87,4.94-6-2.57-4.04-5.09-7.99-7.84-12.29,2.58-1.17,3.89-1.77,3.27-1.49,3.12-3.39,4.88-5.3,6.65-7.21,3.53,4.57,7.06,9.14,10.6,13.71-.42.35-.84.69-1.26,1.04,5.03,4.44,10.06,8.87,16.33,14.41.28-4.69.41-6.77.59-9.72,15.75,8.13,23.37,25.72,39.02,32.38.4-4.46.68-7.69.97-10.91l2.43-.35c3.6,3.23,7.2,6.47,10.8,9.7,14.84,16.45,23.4,35.94,31.9,55.47l-1.88,2.55c-6.55-3.41-13.6-6.13-19.51-10.41-7.54-5.46-13.69-12.87-21.35-18.11-3.97-2.71-9.91-2.55-15.48-3.81-10.85-7.71-17.79-21.67-35.08-26.39-3.02-5.59-7.05-13.04-11.08-20.49.44-.22.87-.45,1.31-.67-1.83-1.56-3.66-3.12-6.26-5.35-2.56,1.11-5.8,2.53-9.05,3.94Z"/><path class="uuid-7d0fc552-ed7d-4a0d-9213-150db2bed77f" d="M670.97,302.54c.15-.14.26-.34.39-.36,8.03-1.26,16.04-2.65,24.1-3.69,5.13-.66,7.35,1.55,8.39,7.1,6.24,33.31,6.66,66.91,5.92,100.6-.08,3.53-1.1,7.04-1.68,10.56-.77.05-1.54.1-2.31.15-1.14-3.03-2.28-6.06-2.83-7.51-7.3-5.69-13.6-10.6-19.91-15.51.4-.63.81-1.26,1.21-1.89,5.18.91,10.37,1.81,15.55,2.72.75-.52,1.51-1.04,2.26-1.56-1.69-4.31-2.62-9.19-5.31-12.74-2.33-3.09-6.8-4.49-10.03-7.02-1.99-1.56-3.4-3.84-6.03-6.92,5.11-.23,8.37-.37,12.34-.54.15-2.86.29-5.58.38-7.53-7.78-7.05-15.01-13.59-23.35-21.15,6.99-1.91,11.22-3.06,15.3-4.18-5.18-11.02-15.73-17.65-14.41-30.53Z"/><path class="uuid-d83fdcc8-51c7-48b0-9fa6-a0617d9b6bc4" d="M312.58,640.81l-4.47-4.33c-.59.72-1.18,1.44-1.76,2.16-9.61-13.11-19.21-26.23-31.16-42.54-30.72-15.02-64.81-31.69-98.9-48.36-.21.26-.42.52-.63.78-4.02-1.27-8.11-2.36-12.04-3.87-6.34-2.42-12.54-5.18-18.86-7.65-3.23-1.26-6.61-2.13-9.88-3.3-8.14-2.92-16.37-5.61-24.33-8.95-7.64-3.2-15.03-7-22.41-10.76-.96-.49-1.26-2.27-2.88-5.43,9.32,2.73,16.55,4.85,23.56,6.9,3.97,1.49,7.62,2.95,11.33,4.23,5.22,1.8,10.56,3.27,15.71,5.24,7.84,3,15.48,6.53,23.36,9.39,6.1,2.21,12.63,3.27,18.63,5.67,8.36,3.35,16.32,7.69,24.62,11.21,9.64,4.1,19.49,7.73,29.21,11.65,4.24,1.71,8.65,3.19,12.53,5.52,10.83,6.52,21.73,13.01,32.03,20.3,12.06,8.54,21.88,19.35,28.35,32.82,1.18,2.46,1.48,5.36,2.05,8.08,1.01,4.85,1.92,9.71,2.87,14.57,1.03-1.13,2.06-2.25,3.09-3.38Z"/><path class="uuid-d83fdcc8-51c7-48b0-9fa6-a0617d9b6bc4" d="M572.95,388.05c-5.36,5.87-11.6,9.89-19.41,12.35-4.93,1.56-8.92,6.08-13.37,9.21-5.45,3.83-10.88,7.69-16.44,11.36-4.11,2.72-8.41,5.16-12.89,7.88-12.39-1.88-21.7-8.99-28.9-18.04,30.1-12.05,60.33-24.14,90.65-36.28,1.19,2.39,2.49,4.98,3.78,7.57-1.14,1.98-2.28,3.97-3.42,5.95Z"/><path class="uuid-7d0fc552-ed7d-4a0d-9213-150db2bed77f" d="M581.19,253.08c4.93,4.84,9.87,9.68,14.38,14.12-5.27,2.8-10.43,5.25-15.3,8.19-9.95,6-19.5,12.68-29.68,18.23-5.41,2.94-11.99,7.48-18.02,1.92-8.42-7.77-16.14-16.31-23.88-24.78-3.39-3.71-6.22-7.96-9.03-12.15-1.37-2.04-2.11-4.5-3.13-6.78.58-.56,1.17-1.13,1.75-1.69,11.51,9.46,23.02,18.92,34.56,28.4,8.18-5.52,16.24-10.96,24.3-16.4,1.3,1.78,2.6,3.56,4.99,6.82.7-4.26,1.01-6.14,1.26-7.65,5.46-1.58,10.56-3.05,16-4.63.51-1.01,1.16-2.31,1.81-3.61Z"/><path class="uuid-d83fdcc8-51c7-48b0-9fa6-a0617d9b6bc4" d="M262.46,617.71c-5.12-1.17-10.25-2.35-15.37-3.52-28.48-21.4-61.2-33.91-93.95-46.63-.91-1.35-1.83-2.69-1.53-2.26-15.3-5.82-28.94-11-42.59-16.19.16-1.13.32-2.27.48-3.4,3.67,0,7.63-.9,10.94.18,7.84,2.55,15.38,6.01,23.02,9.15,5.87,2.42,11.62,5.15,17.58,7.32,4.34,1.57,9.15,1.94,13.38,3.72,10.25,4.32,20.23,9.26,30.41,13.75,8.71,3.84,17.57,7.33,26.26,11.2,1.64.73,2.81,2.53,3,2.71,11.82,6.79,21.86,13.23,28.28,24.06,0,0,.1-.09.1-.09Z"/><path class="uuid-d83fdcc8-51c7-48b0-9fa6-a0617d9b6bc4" d="M517.2,575.58v9.62c13.43-.17,9.23,9.69,10.01,16.75-8.41,8.07-18.57,9.3-28.66,6.3-9.35-2.79-18.06-7.72-27.11-11.59-1.74-.74-3.72-.91-5.94-1.42-.35-1.1-.81-2.55-1.6-5.07,17.67-4.84,35.05-9.59,53.3-14.58Z"/><path class="uuid-d83fdcc8-51c7-48b0-9fa6-a0617d9b6bc4" d="M673.23,540.71c-4.95,7.16-8.57,12.41-12.21,17.65-3.83,5.51-7.53,11.12-11.63,16.42-1.14,1.47-3.46,2.71-5.31,2.81-6.45.34-12.92.13-20.37.13.5-5.12.97-9.92,1.42-14.49,3.74-.21,5.56-.31,7.7-.42.1-1.3.37-2.58.26-3.83-.81-9.02,1.6-11.94,10.92-13.92,6.41-1.36,12.67-3.44,19.09-4.73,2.62-.53,5.48.16,10.15.39Z"/><path class="uuid-d83fdcc8-51c7-48b0-9fa6-a0617d9b6bc4" d="M535.27,618.53c23.71-14.17,49.74-7.3,74.84-11.88,1.27,2.73,2.5,5.39,3.75,8.09-5.81,4.37-10.89,8.19-15.68,11.79-21.21-2.7-42.06-5.35-62.91-8Z"/><path class="uuid-d83fdcc8-51c7-48b0-9fa6-a0617d9b6bc4" d="M566.18,565.45c-1.18,4.11-1.81,6.31-2.46,8.57,2.23.88,4.61,1.81,7.11,2.79v16.31c-7.17,1.24-14.3,2.47-22.17,3.83q-4.67,6.06-15.26,2.74c.44-5.82-3.34-13.02,6.91-15.16,3.87-.81,3.71-4.42,1.03-7.43-1.16-1.31-1.97-2.92-3.85-5.76,9.43-1.93,18.15-3.72,28.69-5.88Z"/><path class="uuid-d83fdcc8-51c7-48b0-9fa6-a0617d9b6bc4" d="M136.65,587.23c3.69-.77,5.23-1.49,6.65-1.3,4.1.54,8.26,1.08,12.19,2.28,7.73,2.36,15.55,4.64,22.91,7.91,9.02,4.01,17.64,8.92,26.35,13.58,8.8,4.7,18.14,8.73,26.07,14.63,7.39,5.5,13.24,13.07,19.77,19.73-.58.75-1.16,1.5-1.73,2.25-2.44-.92-5.16-1.42-7.26-2.84-14.18-9.6-27.78-20.15-42.48-28.86-10.07-5.97-21.7-9.26-32.47-14.12-8.07-3.64-15.86-7.91-23.82-11.79-1.32-.64-2.91-.71-6.17-1.46Z"/><path class="uuid-d83fdcc8-51c7-48b0-9fa6-a0617d9b6bc4" d="M606.2,556.4c.16,3.46.25,5.53.39,8.78,2.86.34,6.28.74,9.69,1.16,1.63,11.04,2.45,15.92-12.21,16.67-6.08.31-12.01,3.01-18.07,4.36-1.96.44-4.11.07-6.06.07-2.33-9.22-.85-13.44,5.42-15.24-.8-3.2-1.62-6.43-2.8-11.14,7.73-1.52,14.97-2.95,23.62-4.65Z"/><path class="uuid-7d0fc552-ed7d-4a0d-9213-150db2bed77f" d="M262.35,617.8c4.39.07,14.71,9.07,15.9,13.66.6,2.32,1.52,4.57,2.44,6.8,3.63,8.85,6.57,18.08,11.22,26.36,3.11,5.53,9,9.43,13.04,14.54,3.62,4.58,6.51,9.76,9.47,14.82.46.78-.42,2.34-.83,4.21-4.02-3.62-7.43-6.69-10.83-9.75.16-.19.32-.37.48-.56-3.34-3.14-6.18-7.28-10.12-9.19-7.54-3.67-6.27-11.59-9.67-17.18-4.27-7.01-7.34-14.76-11.64-21.75-4.01-6.53-8.96-12.48-13.2-18.28,1.01-.99,2.43-2.38,3.85-3.77,0,0-.1.09-.1.09Z"/><path class="uuid-d83fdcc8-51c7-48b0-9fa6-a0617d9b6bc4" d="M581.19,253.08c-.65,1.3-1.31,2.6-1.81,3.61-5.44,1.57-10.54,3.05-16,4.63-.25,1.5-.56,3.39-1.26,7.65-2.39-3.26-3.69-5.04-4.99-6.82,1.04-1.64,2.08-3.28,3.12-4.91,1.29-2.15,2.59-4.29,3.92-6.51-3.06-1.35-4.68-1.61-5.63-2.55-4.58-4.56-8.9-6.46-13.7-.17-.72.95-2.96.74-4.49,1.06,1.82-3.1,3.33-6.45,5.55-9.22,2.72-3.39,6.98-5.81,8.91-9.51,4.23-8.14,11.36-8.24,20.04-9.16-3.23,5-6.06,8.77-8.11,12.93-.63,1.28.31,4.07,1.45,5.38,4.12,4.72,8.62,9.11,12.98,13.62Z"/><path class="uuid-7d0fc552-ed7d-4a0d-9213-150db2bed77f" d="M597.6,657.74c.37-3.31.53-4.75.68-6.09,29.9-22.97,53.54-51.69,75.12-82.34.87.63,1.74,1.26,2.61,1.89-2.43,4.17-4.57,8.55-7.37,12.46-4.11,5.73-8.46,11.33-13.12,16.62-9.81,11.12-19.52,22.36-29.98,32.85-8.38,8.4-17.81,15.76-27.94,24.61Z"/><path class="uuid-d83fdcc8-51c7-48b0-9fa6-a0617d9b6bc4" d="M470.08,618.83c-5.55-.39-11.15-.49-16.64-1.31-2.63-.4-5.01-2.31-7.59-3.32-5.05-1.97-10.34-3.42-15.15-5.82-2.29-1.14-3.72-3.99-5.51-6.05,3.37-2.78,5.19-4.28,7.02-5.78.28-.75.55-1.5.83-2.25,3.38,1.99,6.75,3.99,10.14,5.96,4.94,2.88,9.93,5.67,14.82,8.62,4.07,2.46,8.04,5.08,12.05,7.63.01.77.02,1.54.03,2.31Z"/><path class="uuid-7d0fc552-ed7d-4a0d-9213-150db2bed77f" d="M265.44,264.29c.46,1.32.92,2.64,1.57,4.48,4.87-2.31,9.23-4.37,13.59-6.44-.34,2.04-.05,4.53-1.13,6.03-3.88,5.38-8.19,10.46-12.43,15.57-1.28,1.54-2.89,2.8-4.7,3.88-4.92,3.17-7.78,10.43-15.94,7.46,3.65-7.04,6.86-13.21,10.55-20.32,2.36-2.95,5.43-6.8,8.5-10.65Z"/><path class="uuid-7d0fc552-ed7d-4a0d-9213-150db2bed77f" d="M646.12,444.01c-4.44,13.74-7.62,17.01-13.41,14.5-.22-1.32-.45-2.75-.47-2.85-6.18-4.79-11.48-8.9-18.34-14.22,5.2-2.18,7.96-3.33,10.94-4.58,1.16,2.26,2.04,3.96,3.12,6.07,5.8.34,11.72.7,18.16,1.08Z"/><path class="uuid-7d0fc552-ed7d-4a0d-9213-150db2bed77f" d="M333.2,667.09c4.41,4.14,9.13,8,13.11,12.51,2.25,2.56,3.3,6.18,5.69,8.98,2.55,5.44,5.1,10.88,8.1,17.27-3.69.19-5.75.3-6.24.32-6.81-9.26-13-17.51-18.95-25.92-1.05-1.48-1.13-3.65-1.66-5.51,1.16-.31,2.32-.61,3.27-.86-1.22-2.5-2.27-4.65-3.32-6.81Z"/><path class="uuid-7d0fc552-ed7d-4a0d-9213-150db2bed77f" d="M370.38,665.68c3.95,4.48,7.89,8.95,11.17,12.67,4.46,10.3,8.33,19.23,12.52,28.9h-7.36c-6.49-12.17-13.15-24.27-19.42-36.55,1.03-1.67,2.06-3.35,3.09-5.02Z"/><path class="uuid-7d0fc552-ed7d-4a0d-9213-150db2bed77f" d="M704.86,507.49c2.43,10.06-22.2,59.58-29.43,59.48,9.78-19.76,19.52-39.44,29.43-59.48Z"/><path class="uuid-d83fdcc8-51c7-48b0-9fa6-a0617d9b6bc4" d="M370.38,665.68c-1.03,1.67-2.06,3.35-3.09,5.02-.32-.35-.63-.69-.95-1.04-.73-.94-1.46-1.88-2.2-2.83-8.4-7.32-16.81-14.64-26.41-23v-7.09c13.18,7.82,23.55,17.62,32.64,28.94Z"/><path class="uuid-d83fdcc8-51c7-48b0-9fa6-a0617d9b6bc4" d="M305.83,545.36c1.87,1.42,3.8,2.89,5.67,4.3,2.18.13,4.32.27,6.38.39,3.06,7.9,15.86,6.33,16.58,19.51-5.63-2.92-9.73-4.82-13.6-7.11-5.14-3.05-10.03-6.54-15.16-9.61-4.11-2.46-3.23-4.71.14-7.49Z"/><path class="uuid-d83fdcc8-51c7-48b0-9fa6-a0617d9b6bc4" d="M120.75,469.73c1.43-1.25,2.72-2.37,3.98-3.48,8.86,4.33,17.74,8.61,26.49,13.11.51.26.07,2.38.07,3.5-6.48,2.2-29.13-7.47-30.54-13.14Z"/><path class="uuid-d83fdcc8-51c7-48b0-9fa6-a0617d9b6bc4" d="M269.04,528.24c-1.32,2.38-2.31,4.16-3.62,6.5-9.29-4.58-17.89-8.82-26.79-13.2,1.08-2.24,1.68-3.48,3.09-6.42,9,4.33,17.7,8.51,27.31,13.12Z"/><path class="uuid-d83fdcc8-51c7-48b0-9fa6-a0617d9b6bc4" d="M227.18,508.76c.44,1.09,1.56,3.91,2.79,6.99-7.43,1.3-30.54-11.21-29.24-16.99,8.39,3.17,16.53,6.26,26.44,10.01Z"/><path class="uuid-d83fdcc8-51c7-48b0-9fa6-a0617d9b6bc4" d="M189.75,494.03c-.3,1.99-.57,3.8-.97,6.44-9.06-3.75-17.36-7.19-26.89-11.13.11-.68-.13-3.41.74-3.82,2.19-1.04,5.3-2.08,7.28-1.27,6.54,2.69,12.74,6.2,19.84,9.78Z"/><path class="uuid-d83fdcc8-51c7-48b0-9fa6-a0617d9b6bc4" d="M333.2,667.09c1.05,2.15,2.1,4.31,3.32,6.81-.96.25-2.11.56-3.27.86-4.87-3.68-9.93-7.14-14.52-11.12-2.82-2.44-4.92-5.7-7.51-8.78.47-1.03,1-2.17,2.2-4.76,5.56,5.2,10.54,9.94,15.64,14.55,1.17,1.05,2.75,1.64,4.15,2.44Z"/><path class="uuid-7d0fc552-ed7d-4a0d-9213-150db2bed77f" d="M420.4,587.97c-.9-1.09-1.8-3.12-2.71-3.14-15.91-.19-31.83-.14-48.22-.14-.18,3.29-.33,6.04-.51,9.32-1.11.24-2.31.51-3.52.77,0-3.79,0-7.57,0-12.09,21.4-.13,42.52-.17,63.64.02.01.83.02,1.66.04,2.49-2.91.92-5.81,1.84-8.72,2.77Z"/><path class="uuid-7d0fc552-ed7d-4a0d-9213-150db2bed77f" d="M540.36,249.05c1.54-.32,3.77-.11,4.49-1.06,4.8-6.29,9.12-4.38,13.7.17.95.94,2.57,1.21,5.63,2.55-1.33,2.21-2.63,4.36-3.92,6.51-.82-1.1-1.47-2.93-2.5-3.17-5.22-1.25-10.56-2.04-15.82-3.15-.63-.13-1.06-1.21-1.58-1.86Z"/><path class="uuid-7d0fc552-ed7d-4a0d-9213-150db2bed77f" d="M514.46,64.41c.1-.74.22-1.64.45-3.33,9.63,4.96,18.78,9.66,27.93,14.37l-1.08,2.06c-9.03-4.33-18.05-8.66-27.31-13.1Z"/><path class="uuid-7d0fc552-ed7d-4a0d-9213-150db2bed77f" d="M403.31,61.62c-.95.62-1.9,1.76-2.87,1.77-10.87.12-21.75.11-32.62,0-.84,0-1.67-1.03-2.51-1.58.77-.44,1.54-1.26,2.31-1.26,10.65-.09,21.31-.11,31.96-.03,1.24,0,2.48.71,3.72,1.09Z"/><path class="uuid-7d0fc552-ed7d-4a0d-9213-150db2bed77f" d="M393.16,728.16h8.56c0,.25,0,.5,0,.75h-8.59c0-.25.01-.5.02-.75Z"/><path class="uuid-7d0fc552-ed7d-4a0d-9213-150db2bed77f" d="M333.39,630.75c1.3,0,2.6,0,3.91.01.18.19.21.4.08.64,0,.48,0,.95,0,1.43,0,0,.03-.05.03-.05-.35.4-.71.79-1.06,1.19-.67.71-1.33,1.42-2.95,3.15v-6.36Z"/><path class="uuid-7d0fc552-ed7d-4a0d-9213-150db2bed77f" d="M338.36,574.56c.15-1.49.3-2.99.45-4.48.68.05,1.36.11,2.05.16-.1,1.5-.19,3-.29,4.49l-2.21-.17Z"/><path class="uuid-7d0fc552-ed7d-4a0d-9213-150db2bed77f" d="M108.95,468.29c-3.23-.29-4.73-.42-6.23-.56-.13-.47-.27-.94-.4-1.41,1.16-.59,2.33-1.63,3.47-1.6.75.02,1.47,1.57,3.16,3.57Z"/><path class="uuid-7d0fc552-ed7d-4a0d-9213-150db2bed77f" d="M364.15,666.83c.73.94,1.46,1.88,2.2,2.83-.73-.94-1.46-1.88-2.2-2.83Z"/><path class="uuid-d83fdcc8-51c7-48b0-9fa6-a0617d9b6bc4" d="M337.38,632.83c0-.48,0-.95,0-1.43,0,.48,0,.95,0,1.43Z"/><path class="uuid-d83fdcc8-51c7-48b0-9fa6-a0617d9b6bc4" d="M336.34,633.97c.35-.4.71-.79,1.06-1.19-.35.4-.71.79-1.06,1.19Z"/><path class="uuid-d83fdcc8-51c7-48b0-9fa6-a0617d9b6bc4" d="M246.18,385.09c-11.43,4.57-19.76-3.89-31.51-7.44,3.26-.91,4.69-1.62,6.13-1.66,4.82-.14,9.66.12,14.48-.08,12.86-.53,25.72-1.12,38.56-1.9,5.18-.31,10.32-1.52,15.5-1.69,3.41-.12,6.87.88,8.91,1.18,2.38,4.79,3.96,7.95,5,10.05,11.36,3.93,21.58,7.47,31.8,11.01-.15.87-.3,1.73-.45,2.6-3.27.42-6.54.85-10.4,1.35-.5.72-1.31,1.88-1.73,2.49-17.67,4.03-34.13-.84-50.62-4.2-8.48-3.87-16.86-7.69-25.67-11.71Z"/><path class="uuid-4f42647f-8885-41d2-87fc-8a1e1b221a19" d="M384,0C171.92,0,0,171.92,0,384s171.92,384,384,384,384-171.92,384-384S596.08,0,384,0ZM385.01,717.27c-182.38,0-330.23-147.85-330.23-330.23S202.63,56.81,385.01,56.81s330.23,147.85,330.23,330.23-147.85,330.23-330.23,330.23Z"/></svg>