<svg width="2146" height="1034" viewBox="0 0 2146 1034" fill="none" xmlns="http://www.w3.org/2000/svg">
<g clip-path="url(#clip0_1181_85)">
<g clip-path="url(#clip1_1181_85)">
<path d="M2146 477C2146 503.708 2146 530.417 2145.31 557.925C2132.17 570.338 2119.72 581.951 2106.69 593.87C2104.52 595.659 2102.94 597.142 2100.77 598.836C2097.38 601.53 2094.58 604.012 2091.12 606.692C2086.24 610.136 2082.02 613.382 2077.23 616.956C2072.88 620.412 2069.11 623.541 2064.83 626.841C2063.55 627.747 2062.78 628.483 2061.38 629.442C2056.32 632.921 2051.9 636.179 2046.92 639.487C2042.93 642.057 2039.48 644.576 2035.36 647.185C2031.07 649.676 2027.46 652.076 2023.22 654.771C2018.32 658.211 2014.03 661.356 2009.19 664.718C2006.84 666.478 2005.05 668.019 2002.63 669.839C1996.61 674.279 1991.23 678.44 1985.25 682.875C1981.68 684.938 1978.73 686.728 1975.18 688.813C1971.61 690.86 1968.64 692.612 1965.05 694.395C1962.26 695.331 1960.08 696.237 1957.16 697.238C1954.2 698.365 1952 699.397 1949.09 700.503C1945.51 701.742 1942.62 702.905 1938.93 704.149C1927.58 707.281 1916.98 710.166 1906.49 713.43C1894.64 717.12 1882.86 721.079 1871.13 725.13C1869.79 725.59 1868.93 727.397 1867.09 728.676C1863.57 729.582 1860.8 730.393 1857.34 731.268C1852.26 733.773 1847.86 736.214 1842.8 738.717C1839.66 740.607 1837.18 742.435 1834.04 744.347C1825.24 750.638 1816.62 756.298 1809.11 763.185C1798.62 772.821 1788.92 783.325 1778.97 793.552C1774.36 798.293 1769.98 803.258 1764.94 808.496C1760.15 813.38 1755.92 817.889 1751.12 822.74C1748.52 825.293 1746.5 827.505 1743.89 830.029C1739.26 834.118 1735.21 837.895 1730.97 841.735C1730.79 841.799 1730.64 842.151 1730.08 842.38C1724.04 847.366 1718.37 851.912 1713.15 856.94C1707.92 861.988 1702 866.371 1697.69 872.408C1697.72 872.488 1697.56 872.459 1696.81 872.339C1691.42 874.644 1686.93 877.494 1682.08 879.42C1663.56 886.766 1645.2 894.672 1626.27 900.756C1602.86 908.275 1579.12 914.931 1555.2 920.633C1511.73 930.998 1471.42 948.582 1433.29 971.522C1402.24 990.203 1371.16 1008.85 1340.29 1027.83C1328.57 1035.05 1317.41 1043.18 1305.32 1050.82C1301.7 1052.66 1298.77 1054.57 1295.27 1056.72C1293.03 1058.11 1291.36 1059.25 1289.14 1060.71C1286.29 1062.64 1283.98 1064.26 1280.99 1066.11C1267.67 1073.98 1255.01 1081.57 1242.44 1089.29C1240.05 1090.77 1238 1092.79 1235.08 1094.65C1229.46 1097.91 1224.54 1101.07 1218.88 1104.27C1216.13 1105.31 1214.1 1106.26 1212.14 1107.33C1199.62 1114.16 1187.65 1122.89 1171.48 1118.23C1167.96 1116.88 1164.98 1115.96 1161.48 1114.58C1156.87 1111.48 1152.67 1108.96 1148.69 1106.15C1140.46 1100.33 1132.36 1094.35 1123.81 1087.9C1095.61 1071.43 1067.84 1055.47 1040 1039.61C1022.93 1029.88 1005.85 1020.16 988.63 1010.71C963.799 997.085 938.842 983.694 913.905 970.266C911.314 968.871 908.486 967.922 905.788 966.721C901.865 964.975 897.824 963.436 894.074 961.372C883.928 955.787 874.048 949.71 863.816 944.293C814.043 917.941 763.667 892.832 711.2 872.188C697.594 866.834 683.735 862.124 669.23 856.82C665.974 855.986 663.446 855.574 660.994 854.891C653.979 852.936 646.994 850.871 639.242 848.713C637.249 848.321 635.979 848.171 634.782 847.792C627.843 845.596 620.922 843.345 613.334 840.752C585.782 832.03 558.891 823.671 531.384 814.873C523.267 811.723 515.764 809.011 507.92 805.756C505.049 803.898 502.519 802.583 499.377 800.814C493.941 799.044 489.117 797.728 483.864 795.826C475.982 792.128 468.529 789.015 460.658 785.476C458.76 784.609 457.281 784.168 455.095 783.429C452.414 782.631 450.439 782.13 447.853 781.232C438.831 778.876 430.422 776.918 421.592 774.601C419.377 774.321 417.582 774.4 415.081 774.128C400.215 771.211 386.022 770.68 371.629 771.763C343.089 773.91 314.505 775.473 285.643 776.924C284.226 776.687 283.104 776.805 281.08 776.802C263.448 775.468 246.72 774.253 229.66 772.728C228.21 772.571 227.091 772.724 225.148 772.721C210.924 771.165 197.524 769.764 183.31 767.983C170.275 766.635 158.056 765.667 144.991 764.353C136.541 763.242 128.954 762.153 121.331 761.771C95.4585 760.474 69.619 757.909 43.6501 760.32C29.8031 761.606 15.8857 762.131 2 763C2 716.958 2 670.916 2.79896 623.988C7.43413 622.032 11.3038 621.069 15.1009 619.875C33.8156 613.992 52.2725 607.093 71.269 602.348C99.9802 595.178 129.043 589.403 157.999 583.233C167.09 581.296 176.316 579.997 185.639 579.225C187.26 584.288 190.705 584.601 194.517 584.82C203.323 585.328 212.128 586.831 220.9 586.606C226.621 586.46 232.273 590.409 238.902 586.888C251.183 586.607 262.526 586.311 274.425 586.211C275.982 585.924 276.984 585.44 278.808 584.964C282.577 584.559 285.662 584.573 288.446 583.664C310.553 576.45 332.594 569.034 354.692 561.791C355.991 561.365 357.603 561.898 359.936 562.036C358.6 564.984 357.939 567.221 356.693 569.064C348.768 580.791 338.976 590.544 326.7 597.824C314.693 604.945 302.815 612.3 291.109 619.904C287.755 622.083 285.194 625.485 280.984 629.576C292.041 631.78 300.935 630.97 309.695 630.307C328.873 628.856 347.976 626.119 367.17 625.252C390.569 624.196 413.284 619.616 435.973 614.512C444.034 612.699 450.977 608.498 455.823 601.909C467.632 585.847 479.616 569.851 490.319 553.057C497.89 541.177 500.215 527.777 494.034 513.444C495.198 509.54 495.973 506.362 496.693 503.17C498.466 495.303 500.64 493.515 508.881 492.774C520.538 491.726 531.309 494.316 541.277 500.379C550.073 505.727 558.744 511.293 567.675 516.405C585.534 526.629 603.62 536.46 621.413 546.797C625.635 549.249 631.049 550.948 632.747 556.491C631.793 557.252 631.34 557.897 630.771 558.024C616.518 561.205 602.238 564.269 587.996 567.501C583.312 568.564 578.105 569.015 575.491 574.983C577.146 576.301 578.468 577.741 580.098 578.596C603.045 590.621 626.047 602.54 648.999 614.556C652.765 616.528 656.354 618.839 659.729 621.691C659.292 633.824 651.631 636.884 642.112 638.942C627.834 642.03 613.731 645.939 599.593 649.65C597.846 650.109 596.341 651.494 593.45 653.203C597.194 656.463 599.73 659.608 603.008 661.376C625.966 673.759 649.926 683.627 675.737 688.271C691.518 691.11 705.569 687.07 714.046 673.097C718.593 665.604 723.544 664.595 731.048 664.741C742.311 664.96 753.919 665.582 764.805 663.293C788.129 658.39 807.718 645.877 824.845 629.41C828.41 625.982 832.014 621.996 836.394 620.118C855.655 611.859 875.13 604.081 894.686 596.54C903.863 593.002 913.419 594.757 923.975 595.182C922.844 598.334 922.482 600.274 921.527 601.857C912.858 616.224 901.725 628.758 889.32 639.721C875.203 652.197 863.081 666.102 852.432 681.463C850.821 683.785 849.672 686.428 847.679 690.077C850.449 689.808 851.723 689.857 852.9 689.543C870.253 684.906 887.603 680.259 904.932 675.533C914.559 672.908 924.1 669.955 933.766 667.488C940.89 665.669 942.418 666.725 946.363 673.575C948.627 677.505 951.23 681.24 953.723 685.129C971.139 680.15 986.219 672.314 1000.97 664.032C1017.64 654.672 1035.25 647.787 1053.43 642.3C1063.55 639.243 1074.05 637.543 1084.72 639.923C1083.74 650.144 1082.01 655.779 1076.33 663.229C1071.51 669.563 1066.34 675.695 1060.82 681.427C1050.18 692.461 1039.08 703.038 1028.41 714.039C1024.69 717.884 1020.18 721.664 1020.82 729.119C1024.8 729.119 1028.41 729.13 1032.02 729.117C1044.35 729.074 1056.67 728.929 1069 728.996C1095.7 729.139 1122.15 731.561 1147.9 738.974C1160.03 742.464 1171.87 746.936 1183.94 750.675C1196.28 754.501 1207.08 750.341 1213.72 739.118C1216.76 733.976 1218.97 728.347 1221.67 723C1224.06 718.274 1223.19 714.074 1220.08 710.05C1215.81 704.529 1211.49 699.042 1207.4 693.384C1205.18 690.304 1203.4 686.9 1200.9 682.772C1205.09 680.882 1208.15 679.755 1210.97 678.184C1220.74 672.736 1229.07 665.907 1232.9 654.189C1236.6 652.015 1239.98 650.519 1242.8 648.313C1247.04 645.005 1251.74 644.324 1256.85 644.252C1263.72 644.155 1268.76 647.897 1273.86 651.684C1283.74 659.019 1293.54 666.448 1303.52 673.646C1324.01 688.435 1344.67 702.988 1365.09 717.875C1371.75 722.73 1377.87 728.317 1384.19 734.277C1383.63 739.511 1380.61 741.933 1376.83 743.733C1340.77 760.888 1304.73 778.074 1268.66 795.181C1261.27 798.684 1253.75 801.897 1246.63 805.089C1250.79 830.319 1277.87 849.374 1297.16 853.945C1300.16 854.655 1304.03 852.798 1307.19 851.421C1310.71 849.884 1313.66 846.934 1317.23 845.645C1339.42 837.649 1362.02 830.931 1383.26 820.288C1410.61 806.584 1438.62 794.21 1466.04 780.628C1491.41 768.055 1515.41 753.047 1538.09 736.068C1563.1 717.344 1587.8 698.206 1612.66 679.279C1633.8 663.18 1654.51 646.459 1676.26 631.219C1702.68 612.708 1730.06 595.592 1756.85 577.597C1765.62 571.701 1773.82 564.947 1783.07 558.613C1789.06 557.562 1794.23 556.381 1799.45 555.438C1803.44 554.719 1805.11 552.43 1805.05 548.517C1804.94 540.861 1804.74 533.202 1804.87 525.549C1804.95 520.65 1805.56 515.759 1806.37 511.117C1807.14 511.419 1807.47 511.469 1808.14 512.078C1815.08 518.432 1821.7 524.226 1828.65 530.627C1835.95 537.251 1842.92 543.268 1850.16 549.883C1858.83 557.869 1867.22 565.255 1876.2 572.957C1879.87 572.598 1882.94 571.922 1886.78 571.306C1889.02 570.956 1890.49 570.547 1892.51 570.247C1894.05 569.966 1895.05 569.576 1896.87 569.212C1902.44 568.282 1907.21 567.327 1912.78 566.442C1921.74 565.185 1929.89 563.857 1938.84 562.572C1944.19 561.962 1948.88 561.787 1953.27 560.561C1963.6 557.675 1973.78 554.287 1984.75 551.011C1998.47 544.273 2011.42 537.527 2024.48 531.002C2049.1 518.705 2072.31 503.603 2098.49 494.408C2111.94 489.682 2125.11 484.129 2138.44 479.047C2140.87 478.122 2143.48 477.67 2146 477ZM1475.77 901.797C1477.43 900.682 1479.11 899.606 1480.74 898.449C1499.68 884.959 1518.95 871.89 1537.4 857.757C1545.45 851.592 1553.58 846.327 1563.11 842.988C1582.23 836.292 1598.7 826.013 1612.35 810.442C1623.36 797.88 1620.72 788.635 1615.43 776.617C1614.17 773.754 1611.85 772.674 1608.89 773.835C1604.57 775.526 1600.37 777.503 1596.05 779.197C1571.29 788.914 1546.44 798.425 1521.75 808.304C1478.21 825.719 1434.77 843.365 1391.27 860.873C1381.53 864.793 1371.73 868.542 1361.23 872.654C1365.79 881.771 1372.76 887.082 1378.95 892.796C1394.54 907.199 1412.1 918.14 1433.5 922.109C1439.23 923.171 1443.83 922.495 1448.55 919.335C1457.12 913.601 1465.87 908.15 1475.77 901.797ZM920.38 842.244C925.025 837.576 931.235 837.99 937.049 837.073C940.964 836.456 945.037 836.194 948.71 834.863C953.021 833.3 953.1 829.076 949.119 826.71C947.429 825.706 945.438 825.185 943.551 824.539C919.655 816.343 895.799 808.027 871.818 800.086C866.374 798.283 862.363 795.485 859.888 790.382C857.427 785.31 854.529 780.407 852.558 775.154C851.069 771.187 848.824 768.891 844.725 768.691C833.146 768.125 821.352 766.067 810.016 767.516C771.028 772.501 731.837 773.378 692.676 774.906C675.047 775.594 657.373 775.086 639.72 775.218C633.488 775.265 627.445 776.081 622.619 781.337C635.335 787.276 647.213 793.267 659.446 798.415C672.111 803.744 685.072 807.591 699.208 803.481C704.636 801.904 710.302 803.081 715.663 805.761C727.268 811.564 739.261 816.607 750.765 822.593C765.069 830.037 780.103 835.202 795.799 838.486C805.223 840.458 814.858 841.461 824.234 843.612C849.118 849.322 874.326 850.015 899.648 849.043C906.576 848.777 913.656 848.288 920.38 842.244Z" fill="#7FB1C3"/>
<path d="M1105.91 26.6945C1106.73 33.3769 1104.05 37.7472 1097.96 39.8512C1094.64 40.9972 1092.11 38.825 1092.4 35.335C1092.81 30.5372 1096.15 27.9586 1104.43 26.6141C1105.28 26.4978 1105.82 26.4387 1105.91 26.6945Z" fill="#0F3041"/>
<path d="M659.729 621.691C664.242 621.777 668.448 622.628 672.679 623.333C687.392 625.783 699.787 618.968 712.301 613.059C718.857 609.964 725.005 606.007 732.482 601.809C745.772 595.058 758.833 590.249 769.872 582.543C793.058 566.358 815.205 548.68 837.738 531.56C858.414 515.851 879.088 500.136 899.654 484.282C906.146 479.277 913.471 479.182 922.068 478.96C917.008 494.764 912.232 509.684 907.456 524.604C907.998 525.105 908.541 525.606 909.084 526.106C914.612 523.319 920.367 520.901 925.616 517.661C934.341 512.275 942.741 506.362 951.9 501.075C954.932 504.004 957.32 505.915 961.151 503.722C973.38 496.721 985.709 489.894 998.869 483C1004.59 483.608 1010.25 482.83 1014.14 485.094C1024.33 491.022 1026.47 504.079 1035.45 511.451C1036.18 512.058 1035.83 513.994 1035.99 515.311C1037.04 524.114 1037.04 524.114 1046.04 525.01C1041.02 536.147 1036 547.283 1030.97 558.426C1033.78 563.804 1037.96 563.986 1042.62 561.258C1054.94 554.05 1067.63 547.374 1079.34 539.27C1094.9 528.489 1109.65 516.529 1124.8 505.139C1128.21 502.576 1131.63 499.505 1137.75 502.954C1134.9 511.764 1136.2 521.762 1129.99 530.419C1127.75 533.54 1127.66 538.202 1126.31 543.192C1138.85 545.323 1150.13 547.24 1163.25 549.468C1154.51 563.822 1146.67 576.709 1138.01 590.959C1163.68 586.525 1188.24 584.91 1210.92 602.478C1205.37 610.885 1199.83 619.337 1194.23 627.749C1188.73 636.004 1183.17 644.218 1177.28 652.983C1182.83 656.093 1188.81 654.092 1194.46 654.371C1200.44 654.666 1206.45 654.319 1212.44 654.308C1218.43 654.297 1224.43 654.354 1231.38 654.465C1229.07 665.906 1220.74 672.735 1210.97 678.184C1208.15 679.755 1205.09 680.882 1200.9 682.771C1203.4 686.9 1205.18 690.303 1207.4 693.384C1211.49 699.042 1215.81 704.529 1220.08 710.05C1223.19 714.073 1224.06 718.274 1221.67 722.999C1218.97 728.347 1216.76 733.976 1213.72 739.117C1207.08 750.341 1196.28 754.5 1183.93 750.674C1171.87 746.936 1160.03 742.464 1147.9 738.973C1122.15 731.561 1095.7 729.139 1069 728.995C1056.67 728.929 1044.35 729.074 1032.02 729.117C1028.41 729.129 1024.8 729.119 1020.82 729.119C1020.18 721.664 1024.68 717.884 1028.41 714.039C1039.08 703.038 1050.18 692.46 1060.82 681.427C1066.34 675.695 1071.51 669.563 1076.33 663.228C1082.01 655.778 1083.74 650.144 1084.72 639.923C1074.05 637.543 1063.55 639.243 1053.43 642.3C1035.25 647.786 1017.64 654.672 1000.97 664.032C986.219 672.313 971.139 680.149 953.723 685.129C951.23 681.24 948.627 677.505 946.363 673.574C942.418 666.725 940.89 665.669 933.766 667.487C924.1 669.954 914.559 672.908 904.932 675.533C887.603 680.258 870.253 684.906 852.9 689.543C851.723 689.857 850.449 689.807 847.679 690.077C849.672 686.427 850.821 683.785 852.431 681.462C863.081 666.102 875.203 652.196 889.32 639.721C901.724 628.758 912.858 616.224 921.527 601.857C922.482 600.274 922.844 598.333 923.975 595.181C913.419 594.757 903.862 593.001 894.685 596.54C875.129 604.081 855.655 611.859 836.394 620.117C832.014 621.995 828.41 625.981 824.845 629.409C807.718 645.876 788.128 658.39 764.804 663.293C753.919 665.582 742.311 664.96 731.048 664.741C723.544 664.595 718.593 665.603 714.046 673.097C705.569 687.07 691.518 691.109 675.737 688.27C649.926 683.627 625.966 673.759 603.008 661.376C599.729 659.607 597.194 656.463 593.45 653.203C596.341 651.494 597.846 650.109 599.593 649.65C613.731 645.939 627.834 642.029 642.112 638.942C651.631 636.883 659.292 633.824 659.729 621.691Z" fill="#D2E6E9"/>
<path d="M1384.19 734.277C1406.9 724.043 1429.56 714.518 1452.51 704.868C1455.63 708.159 1458.35 711.526 1461.56 714.315C1470.12 721.738 1479.24 720.648 1484.93 710.816C1490.56 701.07 1495.17 690.721 1500.12 680.586C1502.86 674.98 1505.39 669.272 1508.23 663.152C1525.81 671.291 1542.6 679.062 1559.21 686.754C1560.51 685.892 1561.57 685.529 1562.1 684.787C1579.83 659.887 1597.45 634.907 1615.24 610.045C1621.82 600.853 1628.69 591.873 1635.57 582.9C1640.25 576.792 1646.48 573.781 1654.25 572.767C1670.23 570.686 1685.51 566.015 1699.04 556.978C1704.81 553.124 1710.07 548.467 1715.34 543.913C1723.65 536.731 1731.71 529.267 1739.98 522.036C1747.98 515.033 1752.47 515.298 1758.99 523.473C1762.71 528.131 1765.85 533.24 1769.88 539.253C1774.43 546.435 1778.36 552.51 1782.29 558.585C1773.82 564.947 1765.62 571.701 1756.85 577.597C1730.06 595.591 1702.68 612.708 1676.26 631.219C1654.51 646.458 1633.8 663.179 1612.66 679.278C1587.8 698.206 1563.1 717.343 1538.09 736.068C1515.41 753.047 1491.41 768.054 1466.04 780.628C1438.62 794.209 1410.61 806.584 1383.26 820.287C1362.02 830.931 1339.42 837.649 1317.23 845.645C1313.66 846.934 1310.71 849.884 1307.19 851.421C1304.03 852.798 1300.16 854.654 1297.16 853.944C1277.87 849.373 1250.79 830.319 1246.63 805.089C1253.75 801.896 1261.27 798.684 1268.66 795.181C1304.73 778.073 1340.77 760.887 1376.83 743.732C1380.61 741.933 1383.63 739.511 1384.19 734.277Z" fill="#D2E6E9"/>
<path d="M339.886 500.67C357.406 494.373 371.517 484.886 380.131 467.765C383.209 462.721 386.315 458.44 389.231 454.032C395.199 445.008 402.395 437.365 412.238 432.461C426.758 425.226 440.544 416.02 457.644 415.853C458.901 415.84 460.159 415.851 462.074 415.851C462.074 424.111 462.074 431.95 462.074 441.561C470.952 437.313 478.661 433.703 486.299 429.947C494.062 426.13 501.652 421.946 509.51 418.342C516.159 415.291 516.281 415.556 521.699 422.519C509.918 453.779 486.093 477.77 468.252 507.244C476.869 509.579 484.471 511.639 492.847 513.931C500.216 527.777 497.89 541.177 490.319 553.057C479.616 569.851 467.633 585.847 455.823 601.909C450.978 608.498 444.035 612.699 435.973 614.512C413.285 619.616 390.569 624.196 367.17 625.252C347.976 626.119 328.873 628.856 309.695 630.307C300.935 630.97 292.041 631.78 280.984 629.576C285.194 625.485 287.755 622.083 291.109 619.904C302.815 612.3 314.693 604.945 326.7 597.824C338.976 590.544 348.768 580.791 356.693 569.064C357.939 567.221 358.6 564.984 359.936 562.036C357.604 561.898 355.991 561.365 354.693 561.791C332.595 569.034 310.553 576.45 288.446 583.664C285.662 584.573 282.577 584.559 278.486 584.584C276.184 584.802 275.027 585.408 273.87 586.015C262.527 586.311 251.183 586.607 238.404 586.4C231.825 584.095 226.588 582.513 221.581 580.39C219.32 579.431 217.284 577.613 215.561 575.792C213.347 573.452 211.551 570.716 209.575 568.15C212.327 565.538 215.078 562.925 218.812 561.157C221.049 564.121 222.474 565.481 225.924 562.496C223.003 561.776 221.042 561.292 219.081 560.808C223.059 555.117 228.542 551.454 234.963 549.084C242.978 546.125 251.007 543.204 259.547 539.761C270.56 534.532 281.174 530.055 291.522 525.031C307.563 517.242 323.423 509.08 339.886 500.67Z" fill="#D2E6E9"/>
<path d="M1475.16 902.189C1465.87 908.15 1457.12 913.602 1448.55 919.336C1443.83 922.496 1439.23 923.172 1433.5 922.109C1412.1 918.141 1394.54 907.199 1378.95 892.797C1372.76 887.082 1365.79 881.771 1361.23 872.655C1371.73 868.543 1381.53 864.793 1391.27 860.874C1434.77 843.366 1478.21 825.719 1521.75 808.305C1546.44 798.426 1571.29 788.915 1596.05 779.197C1600.37 777.504 1604.57 775.527 1608.89 773.835C1611.85 772.675 1614.17 773.755 1615.43 776.617C1620.72 788.635 1623.36 797.88 1612.35 810.442C1598.7 826.013 1582.23 836.293 1563.11 842.988C1553.58 846.327 1545.45 851.592 1537.4 857.757C1518.95 871.891 1499.68 884.959 1480.74 898.449C1479.11 899.607 1477.43 900.683 1475.16 902.189Z" fill="#D2E6E9"/>
<path d="M919.898 842.872C913.656 848.288 906.576 848.777 899.648 849.043C874.326 850.015 849.118 849.322 824.234 843.612C814.858 841.461 805.223 840.458 795.799 838.486C780.103 835.201 765.069 830.037 750.765 822.593C739.261 816.607 727.268 811.564 715.663 805.761C710.302 803.081 704.636 801.904 699.209 803.481C685.072 807.59 672.111 803.744 659.446 798.415C647.214 793.267 635.335 787.276 622.619 781.337C627.445 776.081 633.488 775.265 639.72 775.218C657.373 775.086 675.047 775.594 692.676 774.906C731.837 773.378 771.028 772.501 810.016 767.516C821.352 766.067 833.146 768.125 844.725 768.691C848.824 768.891 851.069 771.187 852.558 775.154C854.529 780.407 857.427 785.31 859.888 790.382C862.363 795.485 866.374 798.283 871.818 800.086C895.799 808.027 919.655 816.343 943.552 824.539C945.438 825.185 947.429 825.706 949.119 826.71C953.101 829.076 953.021 833.3 948.71 834.863C945.037 836.194 940.964 836.456 937.049 837.073C931.235 837.99 925.025 837.576 919.898 842.872Z" fill="#D2E6E9"/>
<path d="M208.849 568.348C211.551 570.716 213.347 573.451 215.561 575.792C217.283 577.613 219.319 579.431 221.581 580.39C226.588 582.513 231.824 584.094 237.465 586.385C232.272 590.409 226.621 586.459 220.9 586.606C212.128 586.831 203.323 585.327 194.517 584.82C190.705 584.6 187.26 584.288 185.639 579.224C189.158 576.624 192.783 574.723 196.527 573.094C200.332 571.439 204.253 570.051 208.849 568.348Z" fill="#D2E6E9"/>
<path d="M274.425 586.211C275.026 585.408 276.183 584.802 277.663 584.575C276.983 585.439 275.982 585.924 274.425 586.211Z" fill="#BCDADF"/>
<path d="M782.323 429.807C793.508 413.619 797.843 394.855 806.674 378.218C810.773 370.496 816.098 366.421 824.729 366.922C844.004 368.041 863.291 369.031 882.533 370.577C887.913 371.01 891.983 370.034 896.267 366.671C907.782 357.634 919.745 349.17 931.444 340.363C952.509 324.507 972.375 307.369 988.404 286.211C990.01 284.09 991.547 281.908 992.961 279.657C993.446 278.885 993.455 277.816 993.867 276.118C982.503 273.744 972.466 275.708 962.741 281.711C946.902 291.488 930.832 300.9 914.693 310.177C911.512 312.005 907.971 316.35 904.004 313.022C900.012 309.673 903.891 305.614 905 302.058C911.131 282.388 917.589 262.819 923.603 243.114C925.476 236.979 928.482 232.963 934.632 230.139C950.02 223.071 964.71 214.464 980.181 207.605C996.334 200.443 1007.11 188.755 1014.42 173.08C1019.48 162.246 1025.19 151.719 1030.43 140.968C1036.32 128.889 1045.84 120.314 1056.58 112.727C1062.19 108.762 1067.47 104.328 1073.76 99.2312C1077.09 96.4618 1079.55 94.5663 1082 92.6709C1082 92.6709 1082.71 93.2008 1083.15 93.1844C1089.3 103.597 1095.01 114.025 1100.72 124.465C1086.79 141.804 1073.3 158.598 1058.99 176.29C1055.25 181.317 1052.33 185.445 1048.79 189.991C1047.45 191.692 1046.73 192.974 1046.01 194.256C1047.33 194.584 1048.66 194.912 1050.77 195.533C1063.03 196.058 1074.51 196.288 1085.99 196.519C1092.26 202.885 1098.64 209.147 1104.77 215.638C1118.01 229.637 1116.13 242.912 1107.1 258.322C1105.76 260.6 1103.98 262.618 1101.7 265.806C1098.08 270.668 1094.76 274.25 1092.38 278.371C1090.75 281.173 1086.07 282.472 1087.67 287.683C1089.02 289.927 1090.43 291.5 1092.38 293.693C1098.16 294.083 1103.42 294.074 1108.62 293.572C1116.75 292.787 1124.86 291.431 1133.58 294.303C1133.38 298.203 1133.1 301.779 1133.02 305.359C1132.74 317.877 1132.52 330.396 1131.57 342.865C1122.49 350.258 1114.13 357.699 1105.11 365.73C1110.18 373.372 1114.73 380.642 1119.72 387.606C1123.49 392.884 1125.94 397.768 1120.91 403.726C1119.9 404.931 1120.49 407.495 1120.34 409.432C1117.31 411.111 1114.34 412.342 1111.74 415.24C1093.16 435.892 1074.14 456.138 1054.58 475.893C1053.72 471.295 1051.55 469.263 1047.65 469.092C1045.02 468.976 1042.33 468.7 1039.74 469.062C1032.64 470.057 1027.95 466.602 1023.6 461.543C1019.13 456.354 1014.1 451.653 1009.54 446.086C1017.02 437.195 1024.59 429.215 1031.4 420.625C1035.72 415.18 1040.4 409.504 1041.13 401.441C1029.48 404.066 1018.95 406.439 1007.37 409.047C1007.99 406.465 1008.09 405.202 1008.58 404.11C1015.34 388.937 1022.24 373.821 1028.9 358.606C1030.53 354.888 1031.46 350.861 1032.86 346.494C1022.04 344.418 1013.93 346.226 1006.44 352.555C987.133 368.862 968.038 385.487 947.902 400.721C927.242 416.351 905.298 430.272 884.208 445.349C872.406 453.787 860.9 462.552 847.07 467.636C843.677 464.413 844.968 461.341 846.316 458.241C848.566 453.068 851.004 447.963 852.97 442.684C856.186 434.045 858.43 425.189 857.599 414.818C855.782 415.986 854.681 416.566 853.726 417.329C841.238 427.292 828.661 437.148 816.347 447.323C810.494 452.16 805.154 457.617 798.846 462.773C789.54 466.163 780.958 469.549 772.401 472.993C764.761 476.069 764.401 475.889 761.624 467.472C761.329 466.578 760.616 465.82 760.098 464.999C767.505 453.506 774.913 442.013 782.323 429.807Z" fill="#D2E6E9"/>
<path d="M1121.11 409.478C1120.49 407.494 1119.9 404.931 1120.91 403.725C1125.94 397.768 1123.49 392.884 1119.72 387.606C1114.73 380.641 1110.18 373.371 1105.11 365.73C1114.13 357.699 1122.49 350.257 1132.22 343.038C1135.88 346.048 1138.19 348.834 1140.49 351.623C1144.2 356.137 1147.92 360.652 1151.63 365.167C1158.92 374.715 1161.75 387.17 1172.06 394.849C1181.82 402.122 1190.93 410.279 1201.29 418.85C1202.44 410.391 1203.43 403.078 1204.57 394.649C1207.57 395.901 1209.73 396.427 1211.46 397.577C1228.52 408.865 1242.1 424.046 1256.46 438.301C1271.55 453.277 1285.82 469.129 1304.07 480.512C1305.74 481.554 1307.5 482.483 1309.28 483.311C1309.8 483.552 1310.57 483.26 1312.38 483.129C1316.32 474.056 1312.1 463.115 1316.71 453.375C1318.81 453.677 1321.31 453.264 1322.48 454.321C1335.47 466.111 1350.53 475.705 1361.47 490.632C1370.97 503.782 1380.76 516.072 1388.65 529.48C1399.42 547.786 1408.99 566.821 1418.62 585.775C1426.12 600.555 1432.99 615.662 1439.97 630.705C1440.68 632.232 1440.92 635.307 1440.06 635.964C1437.89 637.637 1434.92 639.34 1432.37 639.192C1429.23 639.009 1426.18 637.005 1423.11 635.725C1393.13 623.208 1368.44 603.108 1345 581.211C1344.76 580.984 1344.51 580.757 1344.29 580.51C1329.17 563.619 1310.46 554.104 1287.7 552.835C1280.68 552.443 1275.09 549.062 1270.15 544.292C1257.23 531.809 1244.25 519.395 1231.34 506.901C1218.72 494.682 1204.01 485.756 1187.55 479.895C1183.04 478.291 1180.36 475.87 1178.19 471.801C1171.02 458.324 1163.44 445.065 1156.23 431.604C1154.39 428.156 1153.45 424.235 1151.93 420.595C1151.08 418.545 1150.28 416.301 1148.83 414.699C1139.58 404.412 1139.52 404.462 1121.11 409.478Z" fill="#7FADBC"/>
<path d="M1427.23 443.145C1438.08 451.87 1448.28 460.354 1458.49 468.841C1472.78 480.734 1487.08 492.629 1501.72 504.812C1523.99 490.206 1546.18 475.647 1569.71 461.245C1575.17 466.355 1579.29 471.308 1583.56 476.451C1584.46 475.439 1585.16 475.014 1585.24 474.491C1585.55 472.538 1585.68 470.554 1585.83 468.579C1586.61 458.655 1587.81 458.208 1596.84 454.74C1610.91 449.337 1626.92 449.052 1639.19 438.894C1643.42 442.359 1647.9 445.566 1651.84 449.342C1659.47 456.665 1666.8 464.307 1674.82 472.384C1672.94 474.245 1671.68 476.393 1669.82 477.214C1639.54 490.6 1612.87 510.067 1584.82 527.206C1569.79 536.386 1554.39 544.971 1539.05 553.626C1535.62 555.563 1531.78 556.885 1528.01 558.112C1516.67 561.795 1507.03 558.228 1498.84 550.363C1490.69 542.543 1482.84 534.398 1474.95 526.308C1452.68 503.459 1430.78 480.275 1411.8 452.852C1408.15 444.199 1405.23 436.658 1402.3 429.117C1405.93 425.873 1408.87 428.03 1411.71 430.389C1416.7 434.527 1421.63 438.729 1427.23 443.145Z" fill="#7EACBB"/>
<path d="M1638.85 438.24C1626.92 449.052 1610.91 449.337 1596.84 454.741C1587.81 458.208 1586.61 458.655 1585.83 468.579C1585.68 470.554 1585.55 472.538 1585.24 474.491C1585.16 475.014 1584.46 475.439 1583.56 476.451C1579.29 471.308 1575.17 466.355 1570.4 461.168C1572.4 455.448 1575.06 449.961 1578.39 443.514C1582.15 437.985 1585.24 433.416 1588.52 428.576C1578.75 422.495 1570.24 416.768 1561.32 411.781C1552.84 407.039 1545.55 407.761 1539.85 415.215C1535.65 420.702 1531.15 421.643 1525.28 420.988C1529.59 409.234 1536.66 399.402 1545.34 390.416C1552.46 383.038 1559.43 375.34 1565.28 366.95C1573.1 355.712 1584.16 350.578 1596.68 347.531C1600.54 346.593 1604.59 346.48 1609.27 345.681C1612.27 345.635 1614.54 345.896 1618.11 346.307C1613.56 353.737 1609.34 360.669 1605.06 367.559C1604.37 368.676 1603.27 369.539 1602.53 370.631C1593.88 383.354 1594.21 388.96 1604.49 400.681C1607.55 404.169 1610.93 407.378 1614.75 410.977C1618.34 414.687 1621.31 418.153 1624.32 421.578C1629.03 426.928 1633.78 432.251 1638.85 438.24Z" fill="#D2E6E9"/>
<path d="M1009.32 446.738C1014.1 451.653 1019.13 456.353 1023.6 461.543C1027.95 466.602 1032.64 470.057 1039.74 469.062C1042.33 468.7 1045.02 468.975 1047.65 469.091C1051.55 469.263 1053.72 471.295 1053.94 476.063C1052.21 479.234 1050.46 481.614 1048.38 484.455C1052.17 487.592 1055.96 490.723 1060.4 494.395C1059.45 496.821 1058.4 499.498 1056.08 502.617C1052.89 503.549 1050.97 504.04 1048.67 504.628C1050.42 507.153 1051.53 508.756 1052.65 510.358C1050.82 514.982 1049 519.607 1046.61 524.621C1037.04 524.114 1037.04 524.114 1035.99 515.311C1035.83 513.994 1036.18 512.058 1035.45 511.452C1026.47 504.08 1024.33 491.022 1014.14 485.094C1010.25 482.83 1004.59 483.608 998.773 482.284C996.494 475.609 992.611 471.62 987.957 467.79C995.235 460.364 1002.27 453.551 1009.32 446.738Z" fill="#D2E6E9"/>
<path d="M1053.16 509.887C1051.53 508.756 1050.42 507.154 1048.67 504.628C1050.97 504.04 1052.89 503.549 1055.54 503.079C1055.41 505.205 1054.54 507.311 1053.16 509.887Z" fill="#D0E4E7"/>
<path d="M798.847 462.772C801.188 469.811 799.227 475.798 794.688 481.271C783.242 495.073 772.603 509.618 760.346 522.648C751.544 532.005 740.745 539.509 730.663 547.625C724.656 552.46 717.597 553.877 709.182 552.414C708.213 551.486 708.066 550.754 707.91 548.781C710.786 541.237 713.671 534.934 716.555 528.631C720.319 522.067 723.769 515.298 727.915 508.985C735.508 497.426 743.453 486.096 751.382 474.762C753.644 471.527 756.356 468.607 759.48 465.271C760.617 465.82 761.329 466.577 761.625 467.472C764.401 475.889 764.762 476.068 772.401 472.993C780.959 469.549 789.541 466.163 798.847 462.772Z" fill="#7CA9B8"/>
<path d="M1524.85 421.488C1531.15 421.643 1535.65 420.701 1539.85 415.214C1545.55 407.761 1552.84 407.039 1561.32 411.781C1570.24 416.768 1578.75 422.495 1588.52 428.576C1585.24 433.416 1582.15 437.985 1578.41 442.802C1573.05 437.389 1566.92 435.321 1559.68 434.392C1549.87 433.133 1540.21 430.666 1530.53 428.539C1527.17 427.8 1524.19 426.28 1524.85 421.488Z" fill="#7FADBC"/>
<path d="M951.9 501.075C952.272 499.48 953.265 498.288 955.645 496.975C961.794 496.919 963.963 494.538 963.662 489.826C971.266 482.879 978.87 475.933 987.097 468.695C992.611 471.62 996.494 475.609 997.903 482.284C985.71 489.894 973.38 496.721 961.151 503.723C957.321 505.916 954.932 504.005 951.9 501.075Z" fill="#D2E6E9"/>
<path d="M219.131 560.881C221.042 561.291 223.004 561.775 225.924 562.496C222.474 565.481 221.049 564.12 219.409 561.428C219.024 560.855 219.181 560.954 219.131 560.881Z" fill="#BCDADF"/>
<path d="M1384.24 733.569C1377.87 728.317 1371.75 722.73 1365.09 717.875C1344.67 702.988 1324.01 688.435 1303.52 673.646C1293.54 666.448 1283.74 659.019 1273.86 651.684C1268.76 647.897 1263.72 644.155 1256.85 644.252C1251.74 644.324 1247.04 645.005 1242.8 648.313C1239.98 650.519 1236.6 652.015 1231.95 654.105C1224.43 654.354 1218.44 654.297 1212.44 654.308C1206.45 654.319 1200.44 654.666 1194.46 654.371C1188.81 654.092 1182.83 656.093 1177.28 652.984C1183.17 644.218 1188.73 636.004 1194.23 627.749C1199.83 619.337 1205.37 610.885 1210.92 602.479C1188.24 584.91 1163.68 586.525 1138.01 590.959C1146.67 576.709 1154.51 563.823 1163.25 549.468C1150.14 547.24 1138.85 545.323 1126.31 543.192C1127.66 538.202 1127.75 533.541 1129.99 530.419C1136.2 521.763 1134.9 511.764 1137.75 502.955C1131.63 499.506 1128.21 502.576 1124.8 505.14C1109.65 516.529 1094.9 528.489 1079.34 539.27C1067.63 547.374 1054.94 554.05 1042.62 561.258C1037.96 563.986 1033.78 563.804 1030.97 558.426C1036 547.283 1041.02 536.147 1046.61 524.621C1049 519.607 1050.82 514.982 1053.16 509.887C1054.54 507.311 1055.41 505.205 1056.82 502.638C1058.4 499.498 1059.45 496.821 1060.4 494.395C1055.96 490.723 1052.17 487.592 1048.38 484.455C1050.46 481.615 1052.21 479.235 1054.61 476.684C1074.14 456.138 1093.16 435.892 1111.74 415.239C1114.34 412.342 1117.31 411.111 1121.11 409.478C1139.52 404.463 1139.58 404.412 1148.83 414.699C1150.28 416.302 1151.08 418.545 1151.93 420.596C1153.45 424.235 1154.39 428.156 1156.23 431.604C1163.44 445.066 1171.02 458.324 1178.19 471.801C1180.36 475.87 1183.04 478.291 1187.55 479.895C1204.01 485.756 1218.72 494.682 1231.34 506.902C1244.25 519.396 1257.23 531.809 1270.15 544.292C1275.09 549.062 1280.68 552.443 1287.7 552.835C1310.46 554.104 1329.17 563.62 1344.29 580.51C1344.51 580.758 1344.76 580.984 1345 581.211C1368.44 603.109 1393.13 623.208 1423.11 635.726C1426.18 637.005 1429.23 639.01 1432.37 639.192C1434.92 639.34 1437.89 637.638 1440.06 635.964C1440.92 635.308 1440.68 632.232 1439.97 630.706C1432.99 615.662 1426.12 600.556 1418.62 585.776C1408.99 566.822 1399.42 547.786 1388.65 529.48C1380.76 516.072 1370.97 503.782 1362.64 490.631C1365.11 486.815 1366.37 482.304 1368.93 479.657C1369.24 479.334 1369.58 479.039 1369.93 478.777C1376.43 473.98 1383.89 470.392 1391.23 466.885C1396.53 464.352 1397.83 462.663 1396.76 456.232C1396 451.715 1394.67 447.129 1398.44 443.389C1398.67 448.14 1400.19 451.062 1404.97 451.629C1407.17 451.888 1409.31 452.558 1412 453.503C1430.78 480.276 1452.68 503.459 1474.95 526.308C1482.84 534.399 1490.68 542.543 1498.84 550.363C1507.03 558.229 1516.67 561.795 1528.01 558.112C1531.78 556.886 1535.62 555.564 1539.05 553.626C1554.39 544.972 1569.79 536.386 1584.82 527.206C1612.87 510.067 1639.54 490.601 1669.82 477.214C1671.68 476.394 1672.94 474.246 1674.82 472.385C1666.8 464.308 1659.47 456.665 1651.84 449.342C1647.9 445.567 1643.42 442.359 1638.85 438.24C1633.78 432.251 1629.03 426.928 1624.32 421.578C1621.31 418.153 1618.34 414.687 1616.11 411.188C1616.71 411.443 1617.31 411.699 1617.89 411.956C1622.15 413.832 1625.94 415.739 1629.71 417.653C1629.98 417.791 1630.25 417.929 1630.53 418.068L1630.53 418.069C1635.86 411.185 1635.7 410.469 1626.85 401.604C1629.52 394.855 1629.48 394.666 1627.55 386.549C1627.48 386.276 1627.41 385.993 1627.35 385.7C1626.4 381.707 1627 377.179 1625.41 373.536C1621.44 364.376 1621.41 360.576 1630.43 358.542C1642.41 355.843 1647.16 342.125 1659.81 341.437C1660.89 341.379 1661.64 338.736 1662.9 337.747C1662.91 337.743 1662.91 337.74 1662.91 337.737C1664.4 336.573 1666.27 335.898 1667.97 335.009C1671.37 340.672 1675.11 346.164 1678.06 352.05C1680.64 357.197 1684.6 360.1 1689.7 362.245C1698.56 365.971 1707.38 369.821 1716.02 374.036C1731.83 381.754 1740.49 395.989 1748.63 410.641C1754.91 421.955 1761.29 433.222 1767.72 444.45C1769.2 447.03 1771.21 449.304 1772.8 451.825C1778.32 460.552 1786.29 462.988 1796.03 461.091C1800.59 460.201 1805.55 460.191 1809.66 458.318C1821.27 453.028 1830.07 456.94 1837.67 466.466C1835.25 469.329 1833.1 471.178 1831.04 472.952C1833.7 479.854 1833.49 480.558 1827.6 485.211C1820.09 491.144 1813.67 497.962 1809.51 507.427C1808.62 509.08 1808.21 510.299 1807.81 511.518C1807.47 511.469 1807.14 511.419 1805.83 510.658C1801.58 508.597 1798.38 508.789 1798.27 512.911C1798.06 520.604 1793.26 523.976 1787.12 526.417C1781.46 528.67 1775.16 529.993 1773.8 537.527C1773.68 538.211 1771.53 538.53 1769.79 538.582C1765.85 533.241 1762.71 528.131 1758.99 523.474C1752.47 515.298 1747.98 515.034 1739.98 522.036C1731.71 529.267 1723.65 536.731 1715.34 543.914C1710.07 548.467 1704.81 553.124 1699.04 556.978C1685.51 566.016 1670.23 570.686 1654.25 572.768C1646.48 573.781 1640.25 576.793 1635.57 582.9C1628.69 591.873 1621.81 600.853 1615.24 610.046C1597.45 634.907 1579.83 659.888 1562.09 684.787C1561.57 685.529 1560.51 685.892 1559.21 686.754C1542.6 679.062 1525.81 671.292 1508.23 663.152C1505.39 669.272 1502.86 674.981 1500.12 680.587C1495.17 690.721 1490.56 701.07 1484.93 710.817C1479.24 720.649 1470.11 721.739 1461.56 714.316C1458.35 711.527 1455.63 708.16 1452.51 704.868C1429.56 714.518 1406.9 724.044 1384.24 733.569Z" fill="#0C2D3F"/>
<path d="M1862.31 485.688C1862.1 490.384 1861.63 493.923 1857.72 496.656C1849.55 502.365 1845.94 511.403 1841.91 520.092C1841.82 520.29 1841.74 520.496 1841.66 520.706C1840.43 523.922 1840.31 528.322 1834.44 526.532C1833.82 519.407 1833.65 513.629 1833.48 508.28C1824.81 505.973 1817.52 503.685 1810 506.994C1813.67 497.962 1820.09 491.144 1827.6 485.211C1833.49 480.558 1833.7 479.854 1831.04 472.952C1833.1 471.178 1835.25 469.329 1837.96 467.092C1846.46 472.804 1854.39 478.904 1862.31 485.688Z" fill="#0C2D3F"/>
<path d="M1783.07 558.613C1778.36 552.51 1774.43 546.435 1770.42 539.689C1771.53 538.53 1773.68 538.211 1773.8 537.527C1775.16 529.993 1781.46 528.67 1787.12 526.417C1793.26 523.976 1798.06 520.604 1798.27 512.911C1798.38 508.789 1801.58 508.597 1805.39 510.406C1805.56 515.759 1804.95 520.65 1804.87 525.549C1804.74 533.202 1804.94 540.861 1805.05 548.517C1805.11 552.43 1803.44 554.719 1799.45 555.438C1794.23 556.381 1789.06 557.562 1783.07 558.613Z" fill="#0C2D3F"/>
<path d="M1809.51 507.427C1817.52 503.685 1824.81 505.973 1833.48 508.28C1833.65 513.629 1833.82 519.407 1834 526.096C1832.59 527.773 1831.19 528.54 1829.05 529.663C1821.7 524.226 1815.08 518.432 1808.14 512.078C1808.21 510.299 1808.62 509.08 1809.51 507.427Z" fill="#0C2D3F"/>
<path d="M1401.73 429.082C1405.23 436.658 1408.15 444.2 1411.28 452.392C1409.31 452.558 1407.17 451.888 1404.97 451.629C1400.19 451.062 1398.67 448.14 1398.44 443.389C1398.01 442.109 1398.01 441.224 1398.52 439.133C1399.35 434.953 1399.68 431.979 1400 429.005C1400.38 429.019 1400.75 429.033 1401.65 429.078C1401.68 429.08 1401.7 429.081 1401.73 429.082Z" fill="#0C2D3F"/>
<path d="M1399.86 428.395C1399.68 431.979 1399.35 434.953 1398.52 438.469C1397.47 435.332 1396.91 431.673 1396.36 428.004C1396.35 427.932 1396.34 427.86 1396.33 427.787L1396.33 427.785C1397.46 427.785 1398.59 427.785 1399.86 428.395Z" fill="#0C2D3F"/>
<path d="M1089.02 91.9443C1092.39 91.7933 1095.46 92.9225 1098.53 93.6273C1098.86 93.7037 1099.19 93.775 1099.53 93.8392C1104.43 94.7841 1112.39 91.9314 1113.65 87.7715C1116.58 78.1172 1124.29 75.9259 1132.01 73.7326L1132.6 73.5638L1142.25 84.2029C1142.38 83.6458 1142.46 83.0795 1142.51 82.5121C1143.01 77.3026 1141.11 71.9481 1148.12 72.2324C1141.81 64.165 1136.05 56.4149 1129.46 49.4443C1122.03 41.5808 1113.85 34.4183 1106 26.9512C1099.24 21.7441 1090.04 16.3168 1082.45 11.5742C1077.05 17.6419 1072.44 23.3081 1067.33 28.4873C1050.99 45.0497 1033.98 60.9813 1018.16 78.0234C1005.09 92.1161 992.563 106.881 981.279 122.426C974.549 131.697 970.515 142.968 965.601 153.495C963.091 158.871 959.823 162.838 954.109 165.186C931.053 174.659 908.17 184.555 885.112 194.023C881.314 195.583 879.122 197.926 877.794 201.525C867.786 228.653 857.609 255.72 847.883 282.947C845.806 288.759 842.942 292.286 836.9 294.408C820.927 300.019 805.166 306.259 789.447 312.562C781.404 315.788 773.367 319.441 769.151 327.798C757.958 349.988 747.023 372.31 735.659 394.412C732.972 399.639 729.752 405.903 721.5 404C711.297 403.706 701.746 403.814 692.296 403.657C686.562 403.562 680.69 404.892 676.893 408.541C664.244 414.152 653.414 420.669 641.783 425.068C633.866 428.063 625.253 435.966 616.213 427.504C616.102 427.288 615.981 427.067 615.847 426.842C594.846 408.782 574.057 392.172 553.592 375.173C542.352 365.836 531.557 355.951 520.744 346.114C509.296 335.7 496.438 333.005 482.011 338.533C477.06 340.43 472.252 342.744 467.504 345.117C459.174 349.28 451.087 353.953 442.638 357.847C423.907 366.478 405.159 375.103 386.149 383.091C364.432 392.217 348.779 408.559 339 429.5C334.958 436.28 331.539 442.387 328.497 448.951C325.29 455.872 320.161 459.749 312.96 461.575C305.275 463.524 296.71 465.413 289.342 468.172C280.596 468.697 272.228 469.606 264 470.5C258.306 471.119 252.856 471.964 247.217 472.436C242.364 472.842 239.458 474.135 237.159 478.549C234.461 483.729 231.696 488.878 228.915 494.055L228.908 494.067L228.908 494.068C224.533 502.211 220.116 510.433 215.856 518.981C212.833 519.798 209.605 521.268 207.109 522.328L207.083 522.339L207.051 522.352C205.862 522.858 204.693 523.354 203.507 523.806C174.684 534.776 145.857 545.737 116.969 556.534C107.974 559.896 98.9097 563.185 89.666 565.744C63.7735 572.913 37.7884 579.755 11.7871 586.521C10.3806 586.887 8.90521 586.992 7.4082 587.099L7.39355 587.1C5.60225 587.227 3.77859 587.356 2 587.936V587.941C2 600.251 2.00001 611.626 2.79883 623.051C7.4339 622.032 11.3035 621.069 15.1006 619.875C21.1019 617.988 27.0772 615.998 33.0518 614.007C45.7082 609.789 58.3641 605.572 71.2686 602.349C93.6288 596.764 116.204 592.025 138.774 587.288L140.444 586.938L140.849 586.854L141.178 586.784C145.985 585.775 150.792 584.764 155.597 583.744C156.397 583.574 157.198 583.404 157.999 583.233C164.235 581.905 170.535 580.875 176.835 579.847C179.719 579.376 182.603 578.905 185.48 578.405C186.601 577.862 187.718 577.309 188.834 576.755L188.858 576.743L188.879 576.733C191.41 575.477 193.94 574.22 196.527 573.095C199.661 571.731 202.874 570.548 206.477 569.223C207.248 568.939 208.039 568.648 208.85 568.348C210.058 567.371 211.18 566.417 212.268 565.492L212.287 565.476L212.292 565.472C214.327 563.742 216.251 562.105 218.427 560.584C218.624 560.674 218.774 560.745 218.884 560.797C219.105 560.902 219.164 560.93 219.131 560.881C223.059 555.117 228.542 551.454 234.963 549.084C235.402 548.922 235.842 548.76 236.281 548.598L236.896 548.371L237.711 548.07L237.722 548.066C244.771 545.468 259.831 539.35 260.062 539.256L260.064 539.255C263.312 537.794 266.571 536.356 269.829 534.918L269.859 534.904L269.88 534.895C277.136 531.694 284.392 528.493 291.521 525.031C305.709 518.142 319.756 510.961 334.203 503.574L334.233 503.559L334.344 503.502C336.184 502.561 338.558 501.21 340.412 500.263C357.406 494.372 372.009 484.468 380 467C383.643 463.009 386.315 458.44 389.23 454.032C395.198 445.008 402.395 437.365 412.238 432.461C426.759 425.226 440.544 416.02 457.644 415.853C458.901 415.84 460.159 415.852 462.074 415.852V441.562C470.951 437.313 478.661 433.703 486.299 429.947C494.062 426.13 501.652 421.946 509.51 418.342C516.097 415.32 516.278 415.552 521.548 422.326L521.549 422.327L521.698 422.519C509.918 453.779 486.093 477.77 468.252 507.244C476.869 509.579 484.471 511.639 493.261 513.212C495.198 509.541 495.974 506.361 496.693 503.17C498.467 495.304 500.64 493.515 508.881 492.774C520.538 491.726 531.309 494.317 541.277 500.379C550.073 505.728 558.744 511.293 567.675 516.405C585.534 526.629 603.62 536.46 621.413 546.797C625.635 549.249 631.049 550.948 632.747 556.491C631.793 557.252 631.34 557.898 630.771 558.024C616.518 561.205 602.238 564.269 587.996 567.501C583.312 568.564 578.105 569.015 575.491 574.982C577.146 576.301 578.469 577.742 580.099 578.596C603.045 590.621 626.048 602.541 648.999 614.557C652.765 616.528 656.354 618.839 660.024 620.993C664.242 621.777 668.449 622.63 672.68 623.334C687.392 625.784 699.787 618.968 712.302 613.06C718.857 609.964 726.15 605.377 732.89 601.271C745.772 595.058 758.833 590.249 769.872 582.544C793.059 566.358 815.205 548.68 837.738 531.56C858.414 515.851 879.088 500.137 899.654 484.283C906.025 479.371 913.197 479.188 921.585 478.973L922.068 478.96L907.456 524.605L909.084 526.107C914.612 523.319 920.368 520.901 925.616 517.661C934.341 512.276 942.741 506.362 951.278 500.671C952.272 499.48 953.265 498.288 954.83 496.942C957.75 494.68 960.099 492.572 963.055 490.144C971.266 482.879 978.87 475.933 987.334 468.082C995.235 460.364 1002.27 453.551 1009.54 446.086C1017.02 437.195 1024.59 429.214 1031.4 420.625L1031.8 420.121C1036 414.827 1040.42 409.255 1041.13 401.441L1007.37 409.047C1007.99 406.465 1008.09 405.202 1008.58 404.11C1015.34 388.936 1022.24 373.821 1028.9 358.606C1030.53 354.888 1031.46 350.861 1032.86 346.494C1022.04 344.417 1013.93 346.226 1006.44 352.554C987.133 368.861 968.038 385.487 947.903 400.721C927.243 416.351 905.299 430.272 884.209 445.349C872.406 453.787 860.9 462.552 847.07 467.636C843.678 464.413 844.968 461.34 846.316 458.241C848.566 453.068 851.005 447.963 852.97 442.684C856.186 434.045 858.43 425.189 857.6 414.818C855.783 415.986 854.682 416.566 853.726 417.329C841.238 427.292 828.661 437.148 816.347 447.323C810.494 452.16 805.154 457.617 799.582 462.793C801.188 469.811 799.227 475.798 794.688 481.271C783.242 495.073 772.602 509.618 760.345 522.648C751.544 532.005 740.744 539.509 730.663 547.625C724.656 552.46 717.687 553.309 709 552.5C708.178 551 708.066 550.754 707.678 549.512C710.794 542.478 713.671 534.934 716.277 527.876L717.028 526.776C720.753 521.223 724.028 514.903 727.915 508.985C735.219 497.865 742.85 486.957 750.478 476.053L750.486 476.042L751.382 474.762C753.644 471.527 756.356 468.607 759.479 465.271C767.506 453.506 774.914 442.012 782.323 429.807C793.507 414.331 797.844 394.856 806.675 378.219C810.774 370.497 816.098 366.421 824.729 366.922C844.004 368.041 863.292 369.032 882.533 370.578C887.913 371.01 891.983 370.034 896.268 366.672C907.783 357.635 919.745 349.169 931.444 340.363C952.51 324.507 972.376 307.37 988.404 286.211C990.01 284.091 991.547 281.908 992.961 279.657C993.445 278.886 993.456 277.816 993.868 276.118C982.503 273.744 972.466 275.708 962.741 281.711C946.902 291.488 930.832 300.9 914.693 310.177C911.513 312.005 907.971 316.35 904.004 313.022C900.012 309.674 903.891 305.615 905 302.059C911.132 282.389 917.59 262.819 923.604 243.114C925.476 236.979 928.482 232.963 934.632 230.139C950.02 223.071 964.71 214.465 980.182 207.605C996.334 200.444 1007.11 188.756 1014.42 173.081C1019.48 162.247 1025.19 151.72 1030.43 140.969C1036.32 128.89 1045.84 120.315 1056.58 112.728C1062.19 108.763 1076.32 96.688 1082 91.8613C1082 92.6711 1082.71 93.2009 1083.89 93.0635C1085.72 92.3164 1087.41 91.9981 1089.02 91.9443Z" fill="#0C2D3F"/>
<path d="M2138.44 479.047C2140.87 478.122 2143.48 477.67 2146 476.068C2146 465.757 2146 456.378 2145.27 446.977C2132.27 452.802 2120.25 459.25 2107.68 464.376C2078.53 476.267 2049.13 487.542 2019.81 499.024C2003.89 505.261 1988.8 514.186 1971.12 514.246L1951.01 496.637C1946.97 493.508 1942.6 489.087 1938.84 494.492C1936.82 494.252 1935.66 494.778 1935.34 495.413C1932.49 496.931 1930.28 498.33 1928.06 499.729L1928.06 499.731C1923.28 501.863 1918.51 503.994 1915.19 506.234C1914.23 505.963 1913.09 506.043 1913.09 506.043C1908.23 506.241 1904.1 506.51 1900.17 507.516C1892.65 503.435 1885.33 500.092 1878.68 497.051C1873.12 493.316 1867.57 488.897 1862.31 485.688C1862.1 490.384 1861.63 493.923 1857.72 496.656C1849.55 502.365 1845.94 511.403 1841.91 520.092C1841.82 520.29 1841.74 520.496 1841.66 520.706C1840.43 523.925 1840.31 528.378 1834.44 527.443C1832.59 527.773 1831.19 528.54 1829.38 530.27C1835.95 537.251 1843.2 543.867 1850.2 549.036C1858.83 557.869 1867.81 565.571 1876.2 572.957C1879.87 572.598 1882.94 571.922 1886.02 571.246C1888.25 570.897 1890.49 570.547 1891.96 570.138C1893.51 569.857 1895.86 569.602 1896.76 568.635C1902.44 568.282 1907.21 567.327 1911.97 566.371C1920.93 565.114 1929.89 563.857 1938.03 561.907C1943.39 561.919 1948.88 561.787 1953.27 560.561C1963.6 557.675 1974.5 554.196 1984.72 550.259C1998.47 544.273 2011.42 537.527 2024.48 531.002C2049.1 518.705 2072.31 503.603 2098.49 494.408C2111.94 489.682 2125.11 484.129 2138.44 479.047Z" fill="#0C2D3F"/>
<path d="M1369.93 478.777C1376.43 473.98 1383.89 470.392 1391.23 466.885C1396.53 464.352 1397.83 462.663 1396.76 456.232C1396 451.715 1394.67 447.129 1398.01 442.993C1398.01 442.109 1398.01 441.224 1398.01 439.675C1397.46 435.356 1396.91 431.674 1396.36 428.004L1396.33 427.787L1396.33 427.785C1397.46 427.785 1398.59 427.785 1399.86 428.395C1400.37 429.003 1400.75 429.032 1401.65 429.078L1401.73 429.082C1405.93 425.874 1408.87 428.031 1411.71 430.389C1416.7 434.528 1421.63 438.729 1427.23 443.145L1432.17 447.101L1432.17 447.105L1432.17 447.106C1433.87 448.445 1435.57 449.783 1437.11 451.062C1444.23 456.988 1451.36 462.914 1458.49 468.841C1472.78 480.734 1487.08 492.63 1501.72 504.812C1523.99 490.206 1546.18 475.647 1569.06 461.011C1572.4 455.448 1575.06 449.962 1577.74 443.763C1573.05 437.39 1566.92 435.322 1559.68 434.392C1549.87 433.133 1540.21 430.667 1530.53 428.539C1527.16 427.801 1524.19 426.28 1524.85 421.489C1529.59 409.234 1536.66 399.402 1545.34 390.417C1552.46 383.039 1559.43 375.34 1565.28 366.95C1573.1 355.713 1584.16 350.579 1596.68 347.531C1600.54 346.593 1605.31 346.172 1609.99 345.374L1618.11 346.307C1613.56 353.737 1609.34 360.669 1605.06 367.56C1604.37 368.676 1603.27 369.539 1602.53 370.631C1593.88 383.354 1594.21 388.961 1604.49 400.682C1607.55 404.169 1610.93 407.378 1615.52 410.925C1616.33 411.273 1617.12 411.616 1617.89 411.956C1622.15 413.832 1625.94 415.739 1629.71 417.653L1630.53 418.068L1630.53 418.069C1635.86 411.185 1635.7 410.469 1626.85 401.604C1629.52 394.855 1629.48 394.666 1627.55 386.549L1627.35 385.7C1626.4 381.707 1627 377.179 1625.41 373.536C1621.44 364.376 1621.41 360.576 1630.43 358.542C1642.41 355.843 1647.16 342.125 1659.81 341.437C1660.89 341.379 1661.64 338.736 1662.9 337.747L1662.91 337.737C1664.4 336.574 1666.27 335.896 1667.9 334.302C1662.66 324.679 1657.48 315.765 1652.31 306.851C1650.47 303.272 1648.47 298.975 1645.78 296.094C1644.08 290.727 1641.55 286.138 1638.67 280.935C1632.14 283.094 1625.9 285.07 1619.73 287.209C1605.08 292.278 1590.47 297.424 1576 303.254C1573.52 303.171 1571.24 304.046 1569.65 304.35C1547.9 308.48 1532.88 321.072 1523.55 340.853C1522.08 342.965 1520.61 345.076 1519.69 346.891C1517.59 350.342 1515.5 353.792 1513.97 356.908C1510.91 359.815 1507.84 362.722 1505.35 365.366L1505.35 365.369C1502.56 367.945 1499.77 370.522 1497.61 372.816C1496.22 373.574 1494.84 374.332 1494.3 375.629C1487.27 375.653 1480.53 376.872 1474.62 376.857C1459.07 376.816 1443.5 375.762 1427.96 376.096C1421.69 376.231 1417.97 374.438 1415.61 369.005C1413.85 366.757 1411.91 363.805 1409.57 362.299C1407.61 356.449 1402.99 351.406 1403.11 346.481C1403.37 335.907 1398 327.785 1391.79 320.168C1391.36 316.543 1389.83 313.904 1389.05 311.06C1385.28 297.328 1376.08 291.033 1362.31 288.126C1332.02 281.73 1307.02 266.424 1288.95 240.632C1280.07 227.961 1274.71 213.792 1270.1 199.247C1264.94 182.999 1254.2 172.64 1237.45 169.403C1214.48 164.963 1198.53 152.057 1188.85 131.011C1182.4 107.448 1167.22 89.5337 1149.97 75.049C1149.53 73.2013 1149 72.8993 1148.3 72.8938C1141.12 72.0129 1143.01 77.3085 1142.51 82.5121C1142.46 83.0795 1142.38 83.6458 1142.25 84.2029L1132.6 73.5638L1132.01 73.7326C1124.29 75.9259 1116.58 78.1172 1113.65 87.7715C1112.39 91.9314 1104.43 94.7841 1099.53 93.8392C1099.19 93.775 1098.86 93.7037 1098.53 93.6273C1095.5 92.9334 1092.46 91.8284 1089.02 91.9443C1087.52 92.0112 1085.97 92.3293 1084.34 93.0468C1089.3 103.596 1095.01 114.025 1100.72 124.464L1100.72 124.465L1100.72 124.47L1100.67 124.528C1086.76 141.845 1073.28 158.619 1059.59 176.048C1056.07 180.418 1051.71 185.863 1048.79 189.991C1047.45 191.692 1046.73 192.974 1046.01 194.256C1047.33 194.584 1048.71 195.621 1050 195C1062.3 196.473 1074.53 196.964 1086 196.5C1092.28 203.56 1098.64 209.147 1104.78 215.638C1118.01 229.637 1116.13 242.912 1107.1 258.322C1105.76 260.6 1103.98 262.618 1102.2 265.467C1098.78 269.618 1094.76 274.25 1092.38 278.371C1090.75 281.173 1086.07 282.471 1087.72 287.012C1089.08 289.256 1090.98 292.12 1093.03 293.412C1098.16 294.083 1103.42 294.074 1108.62 293.572C1116.76 292.787 1124.86 291.431 1133.58 294.303C1133.38 298.203 1133.1 301.779 1133.02 305.359C1132.74 317.877 1132.52 330.396 1132.93 343.087C1135.88 346.048 1138.19 348.834 1140.49 351.624L1140.55 351.702C1144.25 356.189 1147.94 360.677 1152.3 364.792C1158.92 374.715 1161.75 387.171 1172.06 394.85C1181.82 402.123 1190.93 410.28 1201.29 418.851L1204.57 394.649C1207.57 395.901 1209.73 396.427 1211.46 397.578C1228.52 408.866 1242.1 424.046 1256.46 438.302C1271.55 453.278 1285.82 469.129 1304.07 480.512C1305.74 481.554 1307.5 482.483 1309.28 483.311C1309.8 483.552 1310.57 483.26 1312.38 483.129C1316.32 474.056 1312.1 463.116 1316.71 453.376C1318.81 453.677 1321.31 453.264 1322.48 454.321C1335.47 466.111 1350.53 475.705 1362.08 490.269C1365.05 486.776 1366.36 482.299 1368.93 479.657C1369.24 479.334 1369.58 479.039 1369.93 478.777Z" fill="#0C2D3F"/>
<path d="M963.054 490.145C963.963 494.538 961.793 496.919 956.216 496.821C957.75 494.68 960.098 492.572 963.054 490.145Z" fill="#D0E4E7"/>
</g>
</g>
<defs>
<clipPath id="clip0_1181_85">
<rect width="2146" height="1034" fill="white"/>
</clipPath>
<clipPath id="clip1_1181_85">
<rect width="2144" height="1984" fill="white" transform="translate(0 -185)"/>
</clipPath>
</defs>
</svg>
